<?xml version="1.0" encoding="UTF-8"?>
<!-- Generator: visioncortex VTracer 0.6.3 -->
<svg version="1.1" xmlns="http://www.w3.org/2000/svg" width="1280" height="1280">
<path d="M0 0 C3.29 1.1 3.91 1.81 6.05 4.41 C10.52 9.68 15.38 14.53 20.27 19.42 C21.3 20.46 22.33 21.49 23.36 22.53 C26.17 25.35 28.99 28.17 31.81 30.99 C34.85 34.04 37.89 37.1 40.93 40.15 C48.26 47.5 55.6 54.85 62.93 62.2 C65.01 64.28 67.08 66.36 69.15 68.43 C82.02 81.32 94.89 94.22 107.76 107.11 C110.74 110.08 113.72 113.06 116.69 116.04 C117.43 116.78 118.17 117.52 118.93 118.29 C130.94 130.31 142.94 142.34 154.94 154.38 C167.26 166.74 179.58 179.09 191.92 191.43 C198.84 198.36 205.77 205.29 212.68 212.24 C218.56 218.14 224.44 224.04 230.34 229.93 C233.35 232.93 236.36 235.94 239.35 238.96 C242.09 241.72 244.84 244.47 247.6 247.21 C248.6 248.21 249.59 249.21 250.58 250.21 C251.92 251.57 253.28 252.92 254.64 254.26 C255.77 255.39 255.77 255.39 256.91 256.54 C258.87 258.23 258.87 258.23 261.11 257.86 C264.04 256.52 266.05 254.49 268.39 252.3 C268.91 251.81 269.43 251.32 269.97 250.82 C275.74 245.37 281.36 239.76 286.95 234.12 C288.85 232.21 290.75 230.3 292.66 228.39 C296.69 224.35 300.72 220.3 304.75 216.25 C309.44 211.54 314.13 206.82 318.83 202.11 C320.69 200.25 322.55 198.38 324.41 196.51 C333.74 187.13 333.74 187.13 337.95 183.55 C343.64 178.7 348.82 173.29 354.08 167.99 C356.1 165.96 358.12 163.94 360.14 161.91 C364.43 157.61 368.72 153.31 373 149 C377.97 144.01 382.94 139.01 387.92 134.03 C389.9 132.04 391.87 130.05 393.85 128.07 C404.69 117.18 404.69 117.18 410.39 112.38 C413.42 109.78 416.2 106.91 419 104.06 C419.58 103.47 420.17 102.89 420.77 102.28 C422.18 100.86 423.59 99.43 425 98 C428.93 99.59 431.58 102.31 434.5 105.28 C435.04 105.81 435.58 106.35 436.13 106.9 C437.9 108.67 439.66 110.45 441.42 112.23 C442.65 113.46 443.88 114.69 445.1 115.92 C448.33 119.15 451.55 122.39 454.77 125.63 C458.06 128.94 461.35 132.24 464.64 135.55 C471.1 142.03 477.55 148.51 484 155 C482.39 158.4 480.6 160.66 477.94 163.33 C476.74 164.53 476.74 164.53 475.52 165.75 C474.27 166.99 474.27 166.99 473 168.25 C472.17 169.09 471.33 169.93 470.48 170.8 C469.28 171.99 469.28 171.99 468.06 173.2 C467.33 173.93 466.6 174.66 465.85 175.41 C464 177 464 177 462 177 C461.67 177.99 461.34 178.98 461 180 C460.34 180 459.68 180 459 180 C458.67 180.99 458.34 181.98 458 183 C457.34 183 456.68 183 456 183 C455.67 183.99 455.34 184.98 455 186 C453.65 187.32 453.65 187.32 451.83 188.8 C445.8 193.92 440.31 199.58 434.73 205.19 C432.68 207.26 430.63 209.32 428.57 211.38 C424.21 215.75 419.86 220.12 415.5 224.5 C410.45 229.58 405.39 234.65 400.33 239.72 C398.32 241.74 396.31 243.76 394.31 245.78 C389.03 251.08 383.78 256.3 378.08 261.14 C372.82 265.83 367.94 270.94 362.97 275.93 C361.72 277.18 360.48 278.42 359.24 279.67 C355.99 282.92 352.74 286.18 349.49 289.44 C346.17 292.77 342.84 296.1 339.52 299.44 C333.01 305.95 326.5 312.48 320 319 C326.81 325.95 333.63 332.87 340.47 339.78 C343.65 342.99 346.82 346.2 349.98 349.43 C353.03 352.54 356.09 355.64 359.16 358.73 C360.33 359.91 361.5 361.1 362.66 362.29 C364.28 363.96 365.92 365.6 367.57 367.25 C368.28 368 368.28 368 369.01 368.76 C370.51 370.3 370.51 370.3 373 372 C377.86 371.87 380.4 369.16 383.63 365.86 C384.45 365.05 384.45 365.05 385.29 364.22 C387.13 362.39 388.96 360.54 390.79 358.69 C392.12 357.37 393.44 356.04 394.77 354.72 C398.43 351.07 402.08 347.41 405.72 343.75 C409.65 339.8 413.59 335.87 417.52 331.93 C424.35 325.11 431.16 318.28 437.98 311.45 C447.83 301.57 457.68 291.7 467.55 281.83 C483.55 265.82 499.54 249.8 515.52 233.78 C531.05 218.21 546.59 202.65 562.13 187.09 C562.61 186.61 563.09 186.13 563.58 185.64 C568.39 180.82 573.2 176.01 578.01 171.19 C618.35 130.81 658.68 90.41 699 50 C700.11 50.94 701.22 51.89 702.33 52.84 C703.26 53.63 703.26 53.63 704.2 54.43 C706.69 56.6 709.02 58.91 711.35 61.26 C711.84 61.74 712.32 62.23 712.82 62.73 C713.86 63.77 714.9 64.82 715.94 65.86 C717.58 67.52 719.22 69.17 720.87 70.82 C724.35 74.31 727.83 77.81 731.31 81.31 C735.36 85.39 739.42 89.46 743.47 93.53 C745.09 95.16 746.71 96.79 748.33 98.42 C749.32 99.41 750.31 100.4 751.29 101.39 C752.59 102.69 752.59 102.69 753.91 104.02 C755.84 106.04 755.84 106.04 758 107 C756.41 110.92 753.71 113.56 750.76 116.49 C750.21 117.03 749.67 117.58 749.11 118.14 C747.28 119.98 745.45 121.8 743.61 123.63 C742.29 124.95 740.97 126.28 739.65 127.6 C736.01 131.24 732.36 134.88 728.71 138.52 C724.79 142.44 720.86 146.36 716.94 150.29 C710.14 157.09 703.33 163.89 696.53 170.69 C686.68 180.51 676.85 190.34 667.01 200.18 C651.06 216.13 635.09 232.08 619.13 248.02 C603.62 263.51 588.11 279 572.61 294.5 C572.13 294.98 571.65 295.46 571.16 295.95 C566.36 300.74 561.56 305.54 556.77 310.34 C516.52 350.56 476.26 390.78 436 431 C437.91 435.11 440.64 438.1 443.74 441.37 C444.35 442.02 444.96 442.67 445.59 443.33 C453.9 452.09 462.52 460.56 471.1 469.06 C474.25 472.17 477.38 475.28 480.52 478.4 C481.6 479.48 482.68 480.55 483.77 481.63 C484.31 482.17 484.85 482.7 485.4 483.26 C492.68 490.49 499.96 497.72 507.26 504.93 C512.22 509.84 517.17 514.75 522.11 519.68 C524.71 522.27 527.32 524.86 529.94 527.44 C532.85 530.3 535.73 533.18 538.61 536.06 C539.48 536.91 540.35 537.76 541.25 538.64 C542.03 539.42 542.81 540.21 543.61 541.01 C544.63 542.03 544.63 542.03 545.68 543.07 C547 545 547 545 546.98 546.96 C545.64 549.74 543.86 551.5 541.67 553.67 C541.22 554.13 540.77 554.58 540.3 555.05 C538.78 556.57 537.25 558.08 535.71 559.6 C534.62 560.68 533.53 561.77 532.44 562.86 C530.08 565.21 527.73 567.55 525.37 569.89 C521.64 573.58 517.92 577.29 514.2 580.99 C506.98 588.19 499.75 595.37 492.52 602.56 C483.31 611.7 474.11 620.86 464.92 630.02 C461.22 633.7 457.51 637.38 453.81 641.06 C451.5 643.34 449.2 645.63 446.91 647.92 C445.84 648.99 444.77 650.05 443.69 651.11 C442.23 652.55 440.78 654 439.33 655.45 C438.51 656.26 437.69 657.07 436.85 657.91 C434.8 659.95 434.8 659.95 434 663 C434.53 663.53 435.06 664.06 435.61 664.6 C467.08 695.96 498.54 727.33 529.98 758.72 C533.75 762.49 537.52 766.25 541.29 770.02 C542.04 770.77 542.8 771.52 543.57 772.29 C555.74 784.44 567.92 796.58 580.11 808.72 C592.61 821.17 605.09 833.63 617.57 846.1 C625.27 853.79 632.98 861.48 640.7 869.17 C645.99 874.43 651.27 879.7 656.54 884.97 C659.59 888.02 662.64 891.07 665.7 894.1 C668.5 896.88 671.28 899.66 674.06 902.46 C675.07 903.47 676.08 904.48 677.1 905.48 C678.48 906.84 679.84 908.21 681.2 909.59 C681.97 910.35 682.73 911.11 683.51 911.89 C685 914 685 914 684.87 916.12 C683.5 919.07 681.27 921.16 678.99 923.43 C678.47 923.96 677.95 924.48 677.42 925.03 C675.7 926.77 673.96 928.51 672.23 930.24 C671.03 931.45 669.83 932.65 668.63 933.86 C666.12 936.39 663.6 938.91 661.07 941.43 C657.83 944.66 654.61 947.91 651.4 951.17 C648.93 953.66 646.44 956.15 643.96 958.63 C642.77 959.83 641.58 961.03 640.39 962.23 C638.74 963.9 637.07 965.56 635.4 967.22 C634.91 967.72 634.42 968.22 633.91 968.74 C632.52 970.1 632.52 970.1 630 972 C626.14 971.73 624.25 969.62 621.6 966.97 C620.72 966.1 619.85 965.23 618.94 964.33 C617.97 963.35 617 962.37 616.03 961.39 C614.99 960.36 613.96 959.32 612.92 958.29 C610.08 955.45 607.24 952.6 604.4 949.75 C601.34 946.68 598.27 943.61 595.21 940.55 C589.89 935.24 584.58 929.92 579.28 924.6 C571.61 916.9 563.93 909.21 556.25 901.53 C543.79 889.06 531.34 876.59 518.89 864.11 C506.79 851.99 494.69 839.87 482.59 827.76 C481.85 827.01 481.1 826.26 480.33 825.49 C476.59 821.75 472.85 818 469.11 814.26 C438.06 783.18 407.03 752.1 376 721 C372.08 723.28 369.08 725.67 365.86 728.88 C365.37 729.37 364.88 729.85 364.38 730.35 C362.79 731.93 361.2 733.53 359.61 735.12 C358.5 736.23 357.39 737.34 356.27 738.45 C353.95 740.77 351.63 743.1 349.32 745.42 C346.34 748.41 343.36 751.38 340.38 754.35 C338.09 756.64 335.8 758.93 333.51 761.22 C332.41 762.32 331.31 763.42 330.21 764.51 C328.68 766.04 327.15 767.58 325.62 769.12 C324.75 769.99 323.88 770.86 322.98 771.76 C320.81 773.92 320.81 773.92 320 777 C363.56 820.56 407.12 864.12 452 909 C448.26 913.37 444.68 917.45 440.64 921.48 C440.14 921.97 439.64 922.47 439.13 922.99 C437.51 924.61 435.88 926.22 434.26 927.84 C433.12 928.97 431.99 930.11 430.85 931.24 C427.89 934.2 424.92 937.16 421.95 940.12 C418.91 943.15 415.87 946.18 412.84 949.21 C406.89 955.14 400.95 961.07 395 967 C391.12 965.42 388.53 962.79 385.65 959.86 C385.12 959.33 384.59 958.8 384.05 958.25 C382.28 956.48 380.53 954.7 378.77 952.92 C377.5 951.64 376.24 950.37 374.97 949.1 C372.25 946.36 369.53 943.61 366.81 940.87 C362.51 936.53 358.21 932.2 353.9 927.88 C341.65 915.57 329.42 903.26 317.2 890.93 C310.45 884.12 303.69 877.32 296.92 870.53 C292.63 866.23 288.36 861.91 284.09 857.59 C281.43 854.91 278.77 852.24 276.11 849.58 C274.87 848.33 273.63 847.09 272.4 845.84 C270.73 844.13 269.04 842.45 267.35 840.76 C266.86 840.26 266.38 839.76 265.87 839.24 C263.32 836.65 263.32 836.65 259.89 836 C257.67 837.18 256.16 838.47 254.38 840.26 C253.67 840.95 252.97 841.65 252.25 842.37 C251.49 843.14 250.73 843.9 249.95 844.7 C249.14 845.5 248.33 846.31 247.5 847.14 C244.82 849.82 242.15 852.5 239.48 855.19 C237.62 857.05 235.76 858.92 233.9 860.78 C229.99 864.69 226.09 868.61 222.19 872.52 C217.21 877.54 212.22 882.54 207.22 887.54 C203.38 891.39 199.53 895.24 195.69 899.1 C193.85 900.94 192.01 902.78 190.17 904.63 C187.59 907.22 185.02 909.81 182.44 912.4 C181.69 913.15 180.93 913.91 180.16 914.68 C179.45 915.4 178.74 916.12 178 916.86 C177.4 917.47 176.79 918.08 176.16 918.71 C174.28 920.71 172.48 922.74 170.68 924.82 C167.3 928.7 163.78 932.37 160.14 936 C159.49 936.65 158.84 937.31 158.16 937.99 C156 940.16 153.83 942.33 151.66 944.5 C150.09 946.07 148.53 947.64 146.97 949.21 C142.74 953.45 138.51 957.68 134.28 961.92 C131.64 964.56 129 967.21 126.36 969.86 C118.09 978.14 109.82 986.41 101.55 994.69 C100.6 995.64 99.65 996.59 98.7 997.54 C98.23 998.01 97.76 998.48 97.28 998.96 C89.63 1006.62 81.99 1014.28 74.35 1021.94 C66.49 1029.82 58.64 1037.68 50.77 1045.55 C46.36 1049.96 41.95 1054.38 37.55 1058.8 C33.42 1062.95 29.28 1067.09 25.13 1071.23 C23.61 1072.75 22.08 1074.28 20.57 1075.8 C18.5 1077.88 16.43 1079.95 14.35 1082.02 C13.44 1082.94 13.44 1082.94 12.52 1083.88 C8.34 1088 8.34 1088 5 1088 C3.54 1086.62 3.54 1086.62 1.96 1084.66 C-2.53 1079.3 -7.46 1074.41 -12.42 1069.48 C-13.41 1068.49 -14.41 1067.5 -15.4 1066.51 C-17.98 1063.93 -20.57 1061.35 -23.17 1058.77 C-25.81 1056.14 -28.44 1053.5 -31.08 1050.87 C-35.71 1046.25 -40.34 1041.63 -44.98 1037.02 C-46.65 1035.35 -48.33 1033.67 -50 1032 C-48.95 1030.98 -48.95 1030.98 -47.88 1029.94 C-45.85 1027.92 -44 1025.83 -42.19 1023.62 C-39.37 1020.27 -36.22 1017.52 -32.88 1014.7 C-31.17 1013.15 -29.75 1011.61 -28.31 1009.81 C-26.07 1007.08 -23.75 1005.19 -21 1003 C-20.36 1002.2 -19.72 1001.39 -19.06 1000.56 C-16.67 997.59 -13.92 995.44 -11 993 C-9.64 991.35 -8.31 989.69 -7 988 C-5.36 986.31 -3.69 984.65 -2 983 C-1.05 982.03 -1.05 982.03 -0.08 981.05 C5.48 975.41 5.48 975.41 8.56 973 C10.73 971.22 12.35 969.5 14.16 967.37 C17.88 963.08 21.81 959.07 25.83 955.08 C26.59 954.32 27.35 953.57 28.13 952.79 C30.65 950.28 33.18 947.77 35.7 945.26 C37.52 943.46 39.33 941.65 41.15 939.84 C44.54 936.46 47.94 933.08 51.34 929.7 C58 923.07 64.66 916.44 71.32 909.8 C72.37 908.75 73.42 907.7 74.47 906.66 C76.06 905.07 77.65 903.48 79.24 901.9 C85.23 895.93 91.21 889.97 97.2 884 C98.02 883.19 98.02 883.19 98.85 882.35 C107.73 873.5 116.62 864.66 125.51 855.82 C134.64 846.74 143.76 837.65 152.88 828.55 C158.5 822.94 164.13 817.34 169.76 811.75 C174.07 807.47 178.37 803.18 182.66 798.88 C184.43 797.12 186.2 795.36 187.98 793.61 C190.39 791.22 192.79 788.82 195.18 786.41 C196.25 785.36 196.25 785.36 197.35 784.29 C197.98 783.65 198.62 783.01 199.27 782.34 C199.82 781.79 200.38 781.24 200.95 780.67 C202.21 779.04 202.21 779.04 201.8 776.95 C200.54 773.89 198.4 772 196.08 769.66 C195.57 769.15 195.06 768.63 194.54 768.09 C192.85 766.38 191.15 764.68 189.45 762.98 C188.27 761.8 187.09 760.61 185.92 759.43 C183.45 756.94 180.98 754.47 178.5 752 C175.32 748.83 172.16 745.64 169.01 742.44 C166.58 739.99 164.15 737.55 161.71 735.12 C160.54 733.94 159.37 732.77 158.21 731.59 C156.58 729.94 154.95 728.31 153.3 726.69 C151.91 725.29 151.91 725.29 150.49 723.86 C148.27 721.78 148.27 721.78 146.13 722.12 C143.27 723.3 141.64 724.99 139.46 727.18 C138.1 728.53 138.1 728.53 136.71 729.91 C135.72 730.92 134.72 731.93 133.72 732.94 C132.67 733.99 131.61 735.05 130.56 736.1 C127.7 738.96 124.84 741.83 121.99 744.71 C119.01 747.71 116.01 750.7 113.02 753.7 C107.36 759.37 101.71 765.05 96.06 770.73 C89.62 777.2 83.18 783.65 76.74 790.11 C63.48 803.4 50.24 816.7 37 830 C33.13 828.2 30.46 825.73 27.5 822.72 C26.96 822.19 26.42 821.65 25.87 821.1 C24.1 819.33 22.34 817.55 20.58 815.77 C19.35 814.54 18.12 813.31 16.9 812.08 C13.67 808.85 10.45 805.61 7.23 802.37 C3.94 799.06 0.65 795.76 -2.64 792.45 C-9.1 785.97 -15.55 779.49 -22 773 C-20.49 769.46 -18.45 767.21 -15.73 764.52 C-14.38 763.18 -14.38 763.18 -13.01 761.82 C-12.02 760.84 -11.02 759.86 -10.03 758.88 C-8.98 757.84 -7.93 756.8 -6.89 755.76 C-4.64 753.53 -2.38 751.3 -0.13 749.07 C3.44 745.55 6.99 742.01 10.55 738.48 C20.65 728.43 30.77 718.39 40.9 708.37 C46.49 702.83 52.08 697.29 57.66 691.73 C61.19 688.21 64.73 684.71 68.29 681.21 C70.49 679.03 72.68 676.85 74.87 674.66 C75.89 673.64 76.92 672.63 77.94 671.62 C79.34 670.25 80.73 668.87 82.11 667.48 C82.89 666.71 83.67 665.93 84.47 665.14 C86.23 663.15 86.23 663.15 85.87 660.88 C84.5 657.92 82.38 655.97 80.1 653.66 C79.59 653.15 79.08 652.63 78.56 652.09 C76.87 650.38 75.18 648.68 73.48 646.98 C72.31 645.8 71.13 644.61 69.96 643.43 C67.5 640.94 65.03 638.47 62.56 636 C59.38 632.83 56.23 629.64 53.09 626.44 C50.67 623.99 48.24 621.55 45.8 619.12 C44.63 617.94 43.47 616.77 42.31 615.59 C40.7 613.94 39.06 612.31 37.42 610.69 C36.49 609.76 35.56 608.82 34.61 607.86 C32.19 605.78 32.19 605.78 29.5 605.9 C26.15 607.38 24.17 609.37 21.6 611.98 C21.08 612.5 20.57 613.01 20.04 613.55 C18.35 615.25 16.67 616.97 14.99 618.69 C13.81 619.88 12.64 621.07 11.46 622.25 C8.37 625.37 5.28 628.5 2.2 631.64 C-2.73 636.66 -7.68 641.67 -12.64 646.67 C-14.37 648.43 -16.1 650.19 -17.82 651.94 C-18.88 653.01 -19.93 654.08 -20.99 655.15 C-21.91 656.09 -22.83 657.03 -23.78 657.99 C-26 660 -26 660 -28 660 C-28.33 660.99 -28.66 661.98 -29 663 C-29.66 663 -30.32 663 -31 663 C-31.26 663.6 -31.52 664.2 -31.79 664.81 C-33.09 667.16 -34.28 668.31 -36.36 669.98 C-41.74 674.54 -46.64 679.55 -51.6 684.56 C-53.34 686.31 -55.08 688.06 -56.82 689.81 C-61.77 694.78 -66.71 699.76 -71.64 704.74 C-74.68 707.8 -77.72 710.86 -80.76 713.91 C-81.91 715.07 -83.07 716.23 -84.22 717.4 C-85.82 719.02 -87.43 720.63 -89.03 722.25 C-90.4 723.63 -90.4 723.63 -91.8 725.04 C-94 727 -94 727 -96 727 C-96.27 727.6 -96.54 728.2 -96.82 728.82 C-98 730.99 -99.05 732.21 -100.87 733.85 C-101.79 734.68 -101.79 734.68 -102.71 735.53 C-103.74 736.46 -103.74 736.46 -104.78 737.4 C-113.09 745.07 -121.09 753.02 -129.07 761.04 C-130.33 762.31 -131.6 763.58 -132.86 764.85 C-138.1 770.11 -143.33 775.38 -148.55 780.65 C-151.79 783.91 -155.03 787.17 -158.28 790.43 C-159.5 791.65 -160.72 792.88 -161.93 794.11 C-167.97 800.22 -173.9 806.1 -181 811 C-188.46 803.65 -195.91 796.29 -203.35 788.91 C-206.8 785.49 -210.26 782.07 -213.72 778.65 C-217.07 775.37 -220.4 772.06 -223.72 768.75 C-224.99 767.49 -226.27 766.23 -227.55 764.98 C-229.34 763.23 -231.11 761.46 -232.88 759.69 C-233.42 759.17 -233.95 758.65 -234.51 758.11 C-235.96 756.64 -235.96 756.64 -238 754 C-237.91 751.1 -237.32 750.33 -235.29 748.25 C-234.6 747.7 -233.9 747.14 -233.19 746.56 C-230.84 744.61 -228.92 742.89 -227 740.5 C-225.3 738.38 -223.82 736.94 -221.75 735.22 C-215.85 730.11 -210.42 724.53 -204.92 718.99 C-202.9 716.96 -200.88 714.94 -198.86 712.91 C-194.57 708.61 -190.28 704.31 -186 700 C-181.03 695.01 -176.06 690.01 -171.08 685.03 C-169.1 683.04 -167.13 681.05 -165.15 679.07 C-159.95 673.84 -154.77 668.71 -149.15 663.93 C-144.21 659.5 -139.6 654.7 -134.92 649.99 C-132.9 647.96 -130.88 645.94 -128.86 643.91 C-124.57 639.61 -120.28 635.31 -116 631 C-111.03 626.01 -106.06 621.01 -101.08 616.03 C-99.1 614.04 -97.13 612.05 -95.15 610.07 C-89.89 604.78 -84.65 599.56 -78.96 594.72 C-71.2 587.91 -64.02 580.37 -56.69 573.09 C-54.51 570.94 -52.33 568.79 -50.14 566.65 C-47.48 564.04 -44.83 561.43 -42.19 558.8 C-41.19 557.81 -40.18 556.82 -39.17 555.83 C-37.76 554.46 -36.37 553.07 -34.98 551.68 C-34.19 550.89 -33.39 550.11 -32.57 549.3 C-30.78 547.16 -30.78 547.16 -31.03 544.75 C-32.4 540.86 -35 538.46 -37.89 535.63 C-38.51 535 -39.13 534.38 -39.77 533.73 C-41.86 531.64 -43.96 529.56 -46.07 527.48 C-47.57 525.98 -49.06 524.48 -50.56 522.98 C-54.63 518.91 -58.71 514.86 -62.79 510.8 C-67.06 506.56 -71.31 502.31 -75.57 498.06 C-83.63 490.01 -91.7 481.98 -99.77 473.94 C-108.96 464.8 -118.14 455.64 -127.32 446.48 C-146.2 427.64 -165.09 408.82 -184 390 C-182.22 386.19 -179.82 383.52 -176.88 380.57 C-176.36 380.04 -175.84 379.52 -175.3 378.97 C-173.58 377.23 -171.86 375.49 -170.13 373.76 C-168.93 372.55 -167.74 371.35 -166.54 370.14 C-164.03 367.61 -161.51 365.09 -159 362.57 C-155.77 359.34 -152.56 356.09 -149.35 352.83 C-146.88 350.34 -144.4 347.85 -141.92 345.37 C-140.73 344.17 -139.54 342.97 -138.36 341.77 C-136.71 340.1 -135.05 338.44 -133.38 336.78 C-132.65 336.03 -132.65 336.03 -131.9 335.26 C-130.52 333.9 -130.52 333.9 -128 332 C-123.38 332.52 -120.88 335.73 -117.78 338.9 C-117.16 339.52 -116.54 340.14 -115.9 340.78 C-113.82 342.88 -111.75 344.98 -109.67 347.08 C-108.18 348.58 -106.69 350.08 -105.2 351.58 C-101.99 354.81 -98.78 358.05 -95.58 361.29 C-90.52 366.4 -85.44 371.51 -80.36 376.61 C-65.93 391.12 -51.51 405.65 -37.1 420.19 C-29.14 428.22 -21.18 436.24 -13.2 444.24 C-8.15 449.32 -3.11 454.4 1.92 459.5 C5.05 462.66 8.19 465.81 11.33 468.96 C12.79 470.42 14.25 471.9 15.7 473.37 C17.67 475.38 19.66 477.37 21.66 479.36 C22.23 479.95 22.8 480.54 23.39 481.16 C25.16 482.96 25.16 482.96 28 485 C31.52 484.97 32.64 484.3 35.37 482.07 C36.17 481.24 36.97 480.41 37.8 479.55 C38.7 478.64 39.59 477.73 40.51 476.79 C41.45 475.82 42.38 474.85 43.31 473.88 C53.82 463.06 53.82 463.06 57.92 459.57 C63.59 454.73 68.75 449.35 74 444.06 C75.07 442.99 76.14 441.91 77.21 440.83 C79.81 438.23 82.41 435.61 85 433 C83.63 428.83 81.8 426.46 78.65 423.43 C77.8 422.59 76.95 421.76 76.07 420.9 C74.74 419.62 74.74 419.62 73.38 418.31 C71.61 416.6 69.84 414.89 68.09 413.18 C67.3 412.42 66.52 411.67 65.71 410.89 C64 409 64 409 64 407 C63.2 406.69 63.2 406.69 62.39 406.38 C58.99 404.42 56.49 401.78 53.75 399 C53.2 398.45 52.64 397.91 52.07 397.34 C48 393.25 48 393.25 48 391 C47.01 390.67 46.02 390.34 45 390 C45 389.34 45 388.68 45 388 C44.2 387.69 44.2 387.69 43.38 387.38 C40.08 385.47 37.41 382.95 35 380 C35 379.34 35 378.68 35 378 C34.01 377.67 33.02 377.34 32 377 C32 376.34 32 375.68 32 375 C31.01 374.67 30.02 374.34 29 374 C29 373.34 29 372.68 29 372 C28.01 371.67 27.02 371.34 26 371 C26 370.34 26 369.68 26 369 C25.01 368.67 24.02 368.34 23 368 C20.81 366.06 20.81 366.06 19 364 C19 363.34 19 362.68 19 362 C18.01 361.67 17.02 361.34 16 361 C16 360.34 16 359.68 16 359 C15.01 358.67 14.02 358.34 13 358 C13 357.34 13 356.68 13 356 C12.01 355.67 11.02 355.34 10 355 C8.65 353.35 7.31 351.68 6 350 C5.01 349.34 4.02 348.68 3 348 C3 347.34 3 346.68 3 346 C2.01 345.67 1.02 345.34 0 345 C0 344.34 0 343.68 0 343 C-0.99 342.67 -1.98 342.34 -3 342 C-3 341.34 -3 340.68 -3 340 C-3.99 339.67 -4.98 339.34 -6 339 C-7.35 337.35 -8.69 335.68 -10 334 C-10.99 333.34 -11.98 332.68 -13 332 C-13 331.34 -13 330.68 -13 330 C-13.99 329.67 -14.98 329.34 -16 329 C-16 328.34 -16 327.68 -16 327 C-16.64 326.73 -17.28 326.46 -17.94 326.19 C-20 325 -20 325 -21 322 C-2.52 303.52 15.96 285.04 35 266 C38.72 267.86 40.54 269.3 43.4 272.2 C44.27 273.07 45.14 273.95 46.04 274.86 C47 275.84 47.96 276.81 48.92 277.79 C49.94 278.82 50.96 279.84 51.97 280.87 C54.16 283.08 56.35 285.29 58.53 287.5 C61.98 291 65.44 294.49 68.91 297.97 C78.75 307.89 88.59 317.81 98.41 327.75 C103.83 333.24 109.27 338.73 114.71 344.2 C118.16 347.66 121.6 351.14 125.02 354.62 C127.15 356.79 129.29 358.94 131.44 361.08 C132.44 362.08 133.43 363.09 134.41 364.1 C135.75 365.47 137.11 366.83 138.48 368.19 C139.61 369.33 139.61 369.33 140.77 370.5 C142.92 372.27 142.92 372.27 145.64 371.85 C148.75 370.73 150.37 369.1 152.7 366.74 C153.6 365.84 154.5 364.93 155.43 364 C156.4 363.01 157.37 362.01 158.34 361.02 C159.35 360 160.36 358.98 161.37 357.96 C164.03 355.28 166.67 352.59 169.32 349.9 C173.54 345.6 177.78 341.32 182.03 337.04 C183.5 335.55 184.97 334.05 186.44 332.55 C190.8 328.13 195.11 323.84 200 320 C199.51 315.51 198.05 313.55 194.88 310.39 C193.99 309.49 193.09 308.58 192.17 307.65 C191.17 306.66 190.16 305.67 189.16 304.68 C188.1 303.62 187.05 302.56 185.99 301.5 C183.08 298.58 180.16 295.68 177.24 292.78 C174.09 289.65 170.96 286.5 167.82 283.36 C162.38 277.92 156.94 272.49 151.48 267.06 C143.6 259.21 135.73 251.35 127.87 243.49 C115.1 230.74 102.33 217.99 89.55 205.25 C77.14 192.87 64.72 180.49 52.32 168.1 C51.56 167.34 50.79 166.57 50 165.79 C46.17 161.96 42.33 158.13 38.5 154.3 C6.68 122.52 -25.16 90.76 -57 59 C-55.2 55.13 -52.73 52.46 -49.72 49.5 C-49.19 48.96 -48.65 48.42 -48.1 47.87 C-46.33 46.1 -44.55 44.34 -42.77 42.58 C-41.54 41.35 -40.31 40.12 -39.08 38.9 C-35.85 35.67 -32.61 32.45 -29.37 29.23 C-26.06 25.94 -22.76 22.65 -19.45 19.36 C-12.97 12.9 -6.49 6.45 0 0 Z M317 316 C317 316.66 317 317.32 317 318 C317.66 317.67 318.32 317.34 319 317 C318.34 316.67 317.68 316.34 317 316 Z M258.52 378.27 C257.96 378.85 257.39 379.43 256.8 380.04 C256.17 380.68 255.54 381.33 254.88 381.99 C254.22 382.67 253.56 383.36 252.88 384.06 C251.58 385.39 250.29 386.71 248.99 388.04 C248.42 388.63 247.84 389.22 247.25 389.83 C245.3 391.71 243.3 393.48 241.25 395.25 C236.98 398.96 232.98 402.89 229 406.9 C227.92 407.99 227.92 407.99 226.81 409.09 C224.54 411.37 222.27 413.65 220 415.94 C218.45 417.5 216.89 419.05 215.34 420.61 C211.56 424.4 207.78 428.2 204 432 C206.19 436 208.75 439.02 211.94 442.27 C212.43 442.76 212.92 443.26 213.43 443.78 C215.04 445.42 216.65 447.05 218.27 448.68 C219.4 449.82 220.53 450.96 221.65 452.1 C224.01 454.47 226.38 456.85 228.74 459.22 C231.77 462.26 234.79 465.33 237.8 468.39 C240.11 470.75 242.45 473.09 244.78 475.43 C245.9 476.55 247.01 477.68 248.12 478.81 C249.66 480.39 251.23 481.95 252.8 483.51 C253.68 484.4 254.57 485.3 255.48 486.22 C257.82 488.22 257.82 488.22 260.48 488.09 C263.84 486.64 265.85 484.67 268.45 482.08 C268.97 481.57 269.49 481.06 270.02 480.54 C271.73 478.85 273.42 477.15 275.12 475.45 C276.3 474.27 277.48 473.09 278.67 471.92 C281.14 469.45 283.61 466.98 286.08 464.5 C289.24 461.32 292.42 458.16 295.61 455.01 C298.06 452.58 300.49 450.15 302.92 447.71 C304.09 446.54 305.27 445.37 306.44 444.21 C308.08 442.58 309.71 440.95 311.33 439.3 C312.26 438.37 313.18 437.44 314.14 436.49 C316.17 434.25 316.17 434.25 316.1 432 C314.5 429.09 312.41 427.03 310.05 424.68 C309.28 423.9 309.28 423.9 308.5 423.11 C306.8 421.41 305.09 419.71 303.38 418.02 C302.2 416.83 301.01 415.65 299.83 414.47 C297.36 411.99 294.88 409.52 292.39 407.05 C289.2 403.89 286.02 400.71 282.84 397.52 C280.4 395.08 277.96 392.65 275.52 390.21 C274.34 389.04 273.17 387.87 272 386.69 C270.36 385.06 268.72 383.43 267.08 381.8 C266.14 380.87 265.21 379.94 264.25 378.99 C261.44 376.45 261.44 376.45 258.52 378.27 Z M143.49 491.4 C142.84 492.05 142.19 492.7 141.53 493.38 C140.42 494.48 140.42 494.48 139.3 495.61 C138.5 496.42 137.7 497.23 136.87 498.07 C136.05 498.89 135.22 499.72 134.38 500.57 C130.84 504.12 127.31 507.68 123.78 511.24 C121.21 513.83 118.63 516.42 116.06 519 C115.27 519.8 114.49 520.59 113.67 521.41 C109.48 525.62 105.21 529.67 100.7 533.54 C98.4 535.52 96.22 537.61 94.06 539.75 C92.94 540.86 92.94 540.86 91.79 541.98 C89.79 543.97 89.79 543.97 89 547 C96.07 554.21 103.15 561.4 110.25 568.57 C113.55 571.89 116.84 575.23 120.12 578.58 C123.29 581.81 126.47 585.02 129.66 588.22 C130.87 589.45 132.08 590.68 133.29 591.92 C134.97 593.65 136.67 595.36 138.38 597.06 C138.88 597.58 139.38 598.1 139.89 598.63 C142.09 600.79 143.38 601.97 146.52 602.11 C149.8 600.64 151.77 598.7 154.31 596.14 C154.81 595.64 155.32 595.14 155.84 594.62 C157.5 592.95 159.15 591.28 160.79 589.6 C161.95 588.44 163.1 587.28 164.25 586.12 C167.29 583.07 170.31 580.01 173.33 576.94 C176.41 573.83 179.5 570.72 182.58 567.61 C188 562.15 193.42 556.68 198.82 551.21 C200.21 549.8 201.6 548.4 203 547 C202.34 547 201.68 547 201 547 C200.77 546.45 200.55 545.9 200.32 545.33 C198.59 542.28 196.4 540.16 193.92 537.68 C193.41 537.16 192.89 536.65 192.36 536.11 C190.66 534.41 188.95 532.71 187.25 531.02 C186.06 529.83 184.88 528.65 183.7 527.47 C181.22 524.99 178.74 522.52 176.26 520.05 C173.07 516.88 169.89 513.7 166.71 510.52 C164.27 508.08 161.83 505.65 159.38 503.21 C158.21 502.04 157.03 500.87 155.86 499.69 C154.22 498.06 152.59 496.43 150.95 494.8 C150.01 493.87 149.08 492.94 148.12 491.99 C145.75 489.45 145.75 489.45 143.49 491.4 Z M371 495.31 C370.09 496.11 369.18 496.91 368.25 497.74 C365.8 499.87 365.8 499.87 365 503 C364.34 503 363.68 503 363 503 C361.77 504.46 360.54 505.93 359.35 507.43 C358 509 358 509 355.62 510.88 C353.44 512.64 351.95 514.18 350.18 516.3 C346.83 520.18 343.26 523.76 339.59 527.33 C339.02 527.89 338.45 528.45 337.86 529.03 C335.46 531.37 333.06 533.71 330.65 536.03 C328.87 537.74 327.11 539.47 325.34 541.2 C324.79 541.73 324.24 542.25 323.67 542.79 C321.97 544.42 321.97 544.42 320 547 C320.13 551.21 323.09 553.49 325.9 556.34 C326.41 556.85 326.92 557.37 327.44 557.91 C329.13 559.62 330.82 561.32 332.52 563.02 C333.69 564.2 334.87 565.39 336.04 566.57 C338.5 569.06 340.97 571.53 343.44 574 C346.62 577.17 349.77 580.36 352.91 583.56 C355.33 586.01 357.76 588.45 360.2 590.88 C361.37 592.06 362.53 593.23 363.69 594.41 C365.3 596.06 366.94 597.69 368.58 599.31 C369.51 600.24 370.44 601.18 371.39 602.14 C373.81 604.22 373.81 604.22 376.5 604.1 C379.83 602.63 381.86 600.67 384.45 598.1 C384.97 597.59 385.49 597.08 386.02 596.56 C387.73 594.88 389.42 593.18 391.12 591.48 C392.3 590.31 393.48 589.13 394.67 587.96 C397.14 585.5 399.61 583.03 402.08 580.56 C405.24 577.38 408.42 574.23 411.61 571.09 C414.06 568.67 416.49 566.24 418.92 563.8 C420.09 562.63 421.27 561.47 422.44 560.31 C424.09 558.7 425.71 557.06 427.33 555.42 C428.26 554.49 429.18 553.56 430.14 552.61 C432.22 550.19 432.22 550.19 432.1 547.47 C430.64 544.2 428.64 542.41 426 540 C424.32 538.31 422.63 536.62 420.95 534.93 C416.13 530.1 411.3 525.26 406.47 520.42 C403.56 517.5 400.65 514.58 397.74 511.66 C394.91 508.83 392.09 505.99 389.26 503.16 C388.18 502.08 387.1 501 386.03 499.92 C384.53 498.42 383.03 496.92 381.53 495.42 C380.25 494.14 380.25 494.14 378.95 492.83 C375.38 489.48 374.28 492.39 371 495.31 Z M-29 545 C-28 547 -28 547 -28 547 Z M487 602 C487.33 602.99 487.66 603.98 488 605 C488 604.01 488 603.02 488 602 C487.67 602 487.34 602 487 602 Z M250.31 615.56 C247.9 618.04 247.9 618.04 245.5 621.06 C243 624 243 624 240.62 625.88 C238.43 627.65 236.93 629.2 235.15 631.34 C231.88 635.12 228.4 638.62 224.81 642.11 C224.26 642.65 223.71 643.19 223.14 643.74 C220.84 645.99 218.54 648.23 216.22 650.46 C214.51 652.1 212.82 653.76 211.12 655.42 C210.59 655.92 210.06 656.42 209.52 656.94 C207.89 658.5 207.89 658.5 206 661 C206.15 665.21 209.08 667.48 211.9 670.34 C212.41 670.85 212.92 671.37 213.44 671.91 C215.13 673.62 216.82 675.32 218.52 677.02 C219.69 678.2 220.87 679.39 222.04 680.57 C224.5 683.06 226.97 685.53 229.44 688 C232.62 691.17 235.77 694.36 238.91 697.56 C241.33 700.01 243.76 702.45 246.2 704.88 C247.37 706.06 248.53 707.23 249.69 708.41 C251.3 710.06 252.94 711.69 254.58 713.31 C255.51 714.24 256.44 715.18 257.39 716.14 C259.81 718.22 259.81 718.22 262.5 718.09 C265.8 716.65 267.8 714.73 270.36 712.19 C270.87 711.69 271.38 711.19 271.9 710.68 C273.58 709.03 275.24 707.37 276.9 705.7 C278.06 704.55 279.22 703.4 280.38 702.25 C282.81 699.83 285.23 697.41 287.65 694.98 C290.75 691.87 293.87 688.78 297 685.7 C299.4 683.33 301.79 680.94 304.18 678.55 C305.32 677.4 306.47 676.26 307.63 675.13 C309.24 673.54 310.83 671.94 312.42 670.33 C313.33 669.42 314.24 668.51 315.18 667.57 C317.22 665.19 317.22 665.19 317.1 662.51 C315.65 659.2 313.5 656.96 310.95 654.48 C310.42 653.95 309.89 653.42 309.35 652.88 C307.62 651.14 305.87 649.42 304.12 647.7 C302.92 646.5 301.71 645.29 300.5 644.09 C297.98 641.57 295.45 639.06 292.91 636.55 C289.65 633.33 286.4 630.1 283.15 626.86 C280.06 623.78 276.97 620.71 273.88 617.64 C273.28 617.05 272.69 616.46 272.08 615.85 C270.4 614.19 268.73 612.53 267.05 610.88 C266.55 610.38 266.06 609.88 265.54 609.37 C259.37 603.3 255.61 610.51 250.31 615.56 Z M318 663 C319 665 319 665 319 665 Z " fill="#2E82B7" transform="translate(376,91)"/>
<path d="M0 0 C3.29 1.1 3.91 1.81 6.05 4.41 C10.52 9.68 15.38 14.53 20.27 19.42 C21.3 20.46 22.33 21.49 23.36 22.53 C26.17 25.35 28.99 28.17 31.81 30.99 C34.85 34.04 37.89 37.1 40.93 40.15 C48.26 47.5 55.6 54.85 62.93 62.2 C65.01 64.28 67.08 66.36 69.15 68.43 C82.02 81.32 94.89 94.22 107.76 107.11 C110.74 110.08 113.72 113.06 116.69 116.04 C117.43 116.78 118.17 117.52 118.93 118.29 C130.94 130.31 142.94 142.34 154.94 154.38 C167.26 166.74 179.58 179.09 191.92 191.43 C198.84 198.36 205.77 205.29 212.68 212.24 C218.56 218.14 224.44 224.04 230.34 229.93 C233.35 232.93 236.36 235.94 239.35 238.96 C242.09 241.72 244.84 244.47 247.6 247.21 C248.6 248.21 249.59 249.21 250.58 250.21 C251.92 251.57 253.28 252.92 254.64 254.26 C255.77 255.39 255.77 255.39 256.91 256.54 C258.87 258.23 258.87 258.23 261.11 257.86 C264.04 256.52 266.05 254.49 268.39 252.3 C268.91 251.81 269.43 251.32 269.97 250.82 C275.74 245.37 281.36 239.76 286.95 234.12 C288.85 232.21 290.75 230.3 292.66 228.39 C296.69 224.35 300.72 220.3 304.75 216.25 C309.44 211.54 314.13 206.82 318.83 202.11 C320.69 200.25 322.55 198.38 324.41 196.51 C333.74 187.13 333.74 187.13 337.95 183.55 C343.64 178.7 348.82 173.29 354.08 167.99 C356.1 165.96 358.12 163.94 360.14 161.91 C364.43 157.61 368.72 153.31 373 149 C377.97 144.01 382.94 139.01 387.92 134.03 C389.9 132.04 391.87 130.05 393.85 128.07 C404.69 117.18 404.69 117.18 410.39 112.38 C413.42 109.78 416.2 106.91 419 104.06 C419.58 103.47 420.17 102.89 420.77 102.28 C422.18 100.86 423.59 99.43 425 98 C428.93 99.59 431.58 102.31 434.5 105.28 C435.04 105.81 435.58 106.35 436.13 106.9 C437.9 108.67 439.66 110.45 441.42 112.23 C442.65 113.46 443.88 114.69 445.1 115.92 C448.33 119.15 451.55 122.39 454.77 125.63 C458.06 128.94 461.35 132.24 464.64 135.55 C471.1 142.03 477.55 148.51 484 155 C482.39 158.4 480.6 160.66 477.94 163.33 C476.74 164.53 476.74 164.53 475.52 165.75 C474.27 166.99 474.27 166.99 473 168.25 C472.17 169.09 471.33 169.93 470.48 170.8 C469.28 171.99 469.28 171.99 468.06 173.2 C467.33 173.93 466.6 174.66 465.85 175.41 C464 177 464 177 462 177 C461.67 177.99 461.34 178.98 461 180 C460.34 180 459.68 180 459 180 C458.67 180.99 458.34 181.98 458 183 C457.34 183 456.68 183 456 183 C455.67 183.99 455.34 184.98 455 186 C453.65 187.32 453.65 187.32 451.83 188.8 C445.8 193.92 440.31 199.58 434.73 205.19 C432.68 207.26 430.63 209.32 428.57 211.38 C424.21 215.75 419.86 220.12 415.5 224.5 C410.45 229.58 405.39 234.65 400.33 239.72 C398.32 241.74 396.31 243.76 394.31 245.78 C389.03 251.08 383.78 256.3 378.08 261.14 C372.82 265.83 367.94 270.94 362.97 275.93 C361.72 277.18 360.48 278.42 359.24 279.67 C355.99 282.92 352.74 286.18 349.49 289.44 C346.17 292.77 342.84 296.1 339.52 299.44 C333.01 305.95 326.5 312.48 320 319 C326.81 325.95 333.63 332.87 340.47 339.78 C343.65 342.99 346.82 346.2 349.98 349.43 C353.03 352.54 356.09 355.64 359.16 358.73 C360.33 359.91 361.5 361.1 362.66 362.29 C364.28 363.96 365.92 365.6 367.57 367.25 C368.04 367.75 368.52 368.25 369.01 368.76 C370.51 370.3 370.51 370.3 373 372 C377.86 371.87 380.4 369.16 383.63 365.86 C384.45 365.05 384.45 365.05 385.29 364.22 C387.13 362.39 388.96 360.54 390.79 358.69 C392.12 357.37 393.44 356.04 394.77 354.72 C398.43 351.07 402.08 347.41 405.72 343.75 C409.65 339.8 413.59 335.87 417.52 331.93 C424.35 325.11 431.16 318.28 437.98 311.45 C447.83 301.57 457.68 291.7 467.55 281.83 C483.55 265.82 499.54 249.8 515.52 233.78 C531.05 218.21 546.59 202.65 562.13 187.09 C562.61 186.61 563.09 186.13 563.58 185.64 C568.39 180.82 573.2 176.01 578.01 171.19 C618.35 130.81 658.68 90.41 699 50 C700.11 50.94 701.22 51.89 702.33 52.84 C703.26 53.63 703.26 53.63 704.2 54.43 C706.69 56.6 709.02 58.91 711.35 61.26 C711.84 61.74 712.32 62.23 712.82 62.73 C713.86 63.77 714.9 64.82 715.94 65.86 C717.58 67.52 719.22 69.17 720.87 70.82 C724.35 74.31 727.83 77.81 731.31 81.31 C735.36 85.39 739.42 89.46 743.47 93.53 C745.09 95.16 746.71 96.79 748.33 98.42 C749.32 99.41 750.31 100.4 751.29 101.39 C752.59 102.69 752.59 102.69 753.91 104.02 C755.84 106.04 755.84 106.04 758 107 C756.41 110.92 753.72 113.56 750.76 116.49 C749.95 117.3 749.95 117.3 749.12 118.14 C747.29 119.97 745.46 121.79 743.63 123.62 C742.31 124.94 740.99 126.26 739.67 127.59 C736.03 131.23 732.39 134.87 728.75 138.5 C724.82 142.42 720.9 146.34 716.98 150.27 C709.3 157.95 701.61 165.64 693.92 173.32 C684.96 182.26 676.02 191.21 667.07 200.16 C650.61 216.62 634.15 233.07 617.69 249.51 C602.67 264.52 587.65 279.53 572.64 294.55 C571.68 295.51 570.71 296.47 569.75 297.44 C569.27 297.91 568.8 298.39 568.31 298.88 C565.91 301.28 563.51 303.67 561.11 306.07 C560.64 306.55 560.17 307.02 559.68 307.51 C544.44 322.75 529.19 337.99 513.95 353.22 C507.71 359.46 501.47 365.7 495.23 371.93 C487.63 379.54 480.02 387.14 472.41 394.74 C468.53 398.62 464.64 402.5 460.76 406.38 C457.21 409.94 453.65 413.49 450.1 417.04 C448.81 418.32 447.53 419.61 446.25 420.89 C434.62 432.53 434.62 432.53 428.55 437.67 C426.22 439.67 424.05 441.82 421.87 444 C420.98 444.88 420.09 445.77 419.17 446.69 C418.27 447.6 417.37 448.5 416.44 449.44 C415.53 450.34 414.62 451.24 413.69 452.17 C409.86 456.01 406.07 459.84 402.54 463.96 C397.95 469.32 392.88 474.22 387.88 479.19 C386.89 480.17 385.9 481.15 384.92 482.13 C383.11 483.94 381.29 485.74 379.48 487.54 C378.66 488.35 377.84 489.16 377 490 C376.11 490.88 375.22 491.76 374.31 492.67 C371.55 495.46 369.06 498.42 366.55 501.43 C366.04 501.95 365.53 502.46 365 503 C364.34 503 363.68 503 363 503 C362.73 503.6 362.46 504.2 362.19 504.81 C361 507 359.9 508.41 358 510 C357.34 510 356.68 510 356 510 C355.67 510.99 355.34 511.98 355 513 C354.34 513 353.68 513 353 513 C352.73 513.59 352.47 514.18 352.19 514.79 C350.98 517.04 349.74 518.5 347.93 520.3 C347.31 520.92 346.69 521.54 346.05 522.18 C345.38 522.84 344.71 523.49 344.02 524.17 C343.34 524.85 342.65 525.54 341.95 526.24 C339.76 528.41 337.57 530.58 335.38 532.75 C333.89 534.22 332.41 535.7 330.92 537.18 C327.29 540.79 323.64 544.4 320 548 C316.08 546.41 313.44 543.72 310.51 540.77 C309.98 540.24 309.44 539.71 308.89 539.16 C307.13 537.4 305.37 535.64 303.61 533.88 C302.39 532.66 301.16 531.43 299.94 530.21 C297.37 527.65 294.81 525.08 292.25 522.52 C288.97 519.22 285.68 515.94 282.39 512.66 C279.86 510.13 277.33 507.61 274.81 505.08 C273.6 503.86 272.38 502.65 271.17 501.44 C269.47 499.75 267.79 498.06 266.1 496.36 C265.59 495.86 265.09 495.36 264.57 494.84 C262.31 492.55 261.03 491.1 260 488 C260.67 487.43 260.67 487.43 261.36 486.85 C267.53 481.55 273.32 475.89 279.1 470.18 C279.61 469.67 280.12 469.16 280.65 468.64 C283.35 465.97 286.05 463.29 288.74 460.61 C290.96 458.4 293.2 456.2 295.43 454 C298.15 451.33 300.86 448.65 303.55 445.96 C304.58 444.94 305.61 443.92 306.65 442.91 C308.08 441.51 309.51 440.08 310.93 438.66 C311.74 437.85 312.55 437.05 313.39 436.22 C315.18 434.19 315.18 434.19 315.06 432.04 C313.53 429.09 311.47 427.11 309.11 424.77 C308.61 424.26 308.1 423.76 307.58 423.23 C305.9 421.56 304.21 419.9 302.53 418.23 C301.36 417.07 300.2 415.91 299.03 414.75 C295.97 411.7 292.9 408.66 289.83 405.62 C286.69 402.52 283.56 399.4 280.44 396.29 C274.3 390.18 268.15 384.09 262 378 C259.22 379.34 257.2 380.57 255.05 382.79 C254.51 383.34 253.97 383.89 253.42 384.46 C252.87 385.03 252.32 385.6 251.75 386.19 C248.42 389.62 245.09 392.96 241.44 396.06 C236.71 400.18 232.3 404.59 227.88 409.05 C226.4 410.54 224.92 412.03 223.44 413.51 C220.29 416.67 217.14 419.84 214 423 C210.35 426.67 206.7 430.34 203.05 434.01 C201.6 435.46 200.16 436.92 198.71 438.37 C197.82 439.27 196.93 440.17 196 441.09 C195.23 441.87 194.45 442.65 193.65 443.46 C191.54 445.49 189.39 447.41 187.17 449.33 C183.02 452.94 179.12 456.75 175.24 460.66 C174.51 461.39 173.78 462.12 173.03 462.88 C171.46 464.45 169.89 466.02 168.32 467.6 C165.84 470.1 163.35 472.6 160.85 475.09 C155.57 480.39 150.28 485.7 145 491 C138.87 497.15 132.75 503.3 126.61 509.44 C124.17 511.89 121.73 514.35 119.29 516.8 C117.78 518.31 116.27 519.83 114.76 521.34 C114.09 522.01 113.42 522.69 112.73 523.38 C108.86 527.26 104.87 530.94 100.72 534.51 C98.58 536.36 96.56 538.31 94.56 540.31 C93.9 540.97 93.25 541.62 92.57 542.3 C90.92 543.93 90.92 543.93 90 546 C86.08 544.41 83.44 541.72 80.51 538.77 C79.98 538.24 79.44 537.71 78.89 537.16 C77.13 535.4 75.37 533.64 73.61 531.88 C72.39 530.66 71.16 529.43 69.94 528.21 C67.37 525.65 64.81 523.08 62.25 520.52 C58.97 517.22 55.68 513.94 52.39 510.66 C49.86 508.13 47.33 505.61 44.81 503.08 C43.6 501.86 42.38 500.65 41.17 499.44 C39.47 497.75 37.79 496.06 36.1 494.36 C35.59 493.86 35.09 493.36 34.57 492.84 C32.31 490.55 31.03 489.1 30 486 C30.48 485.59 30.97 485.17 31.47 484.75 C36.55 480.38 41.31 475.78 46 471 C49.81 467.11 53.61 463.28 57.75 459.75 C63.46 454.83 68.7 449.41 74 444.06 C75.07 442.99 76.14 441.91 77.21 440.83 C79.81 438.23 82.41 435.61 85 433 C83.63 428.83 81.8 426.46 78.65 423.43 C77.8 422.59 76.95 421.76 76.07 420.9 C75.18 420.05 74.29 419.19 73.38 418.31 C71.61 416.6 69.84 414.89 68.09 413.18 C67.3 412.42 66.52 411.67 65.71 410.89 C64 409 64 409 64 407 C63.2 406.69 63.2 406.69 62.39 406.38 C58.99 404.42 56.49 401.78 53.75 399 C53.2 398.45 52.64 397.91 52.07 397.34 C48 393.25 48 393.25 48 391 C47.01 390.67 46.02 390.34 45 390 C45 389.34 45 388.68 45 388 C44.46 387.79 43.93 387.59 43.38 387.38 C40.08 385.47 37.41 382.95 35 380 C35 379.34 35 378.68 35 378 C34.01 377.67 33.02 377.34 32 377 C32 376.34 32 375.68 32 375 C31.01 374.67 30.02 374.34 29 374 C29 373.34 29 372.68 29 372 C28.01 371.67 27.02 371.34 26 371 C26 370.34 26 369.68 26 369 C25.01 368.67 24.02 368.34 23 368 C20.81 366.06 20.81 366.06 19 364 C19 363.34 19 362.68 19 362 C18.01 361.67 17.02 361.34 16 361 C16 360.34 16 359.68 16 359 C15.01 358.67 14.02 358.34 13 358 C13 357.34 13 356.68 13 356 C12.01 355.67 11.02 355.34 10 355 C8.65 353.35 7.31 351.68 6 350 C5.01 349.34 4.02 348.68 3 348 C3 347.34 3 346.68 3 346 C2.01 345.67 1.02 345.34 0 345 C0 344.34 0 343.68 0 343 C-0.99 342.67 -1.98 342.34 -3 342 C-3 341.34 -3 340.68 -3 340 C-3.99 339.67 -4.98 339.34 -6 339 C-7.35 337.35 -8.69 335.68 -10 334 C-10.99 333.34 -11.98 332.68 -13 332 C-13 331.34 -13 330.68 -13 330 C-13.99 329.67 -14.98 329.34 -16 329 C-16 328.34 -16 327.68 -16 327 C-16.64 326.73 -17.28 326.46 -17.94 326.19 C-20 325 -20 325 -21 322 C-2.52 303.52 15.96 285.04 35 266 C38.72 267.86 40.54 269.3 43.4 272.2 C44.27 273.07 45.14 273.95 46.04 274.86 C47 275.84 47.96 276.81 48.92 277.79 C49.94 278.82 50.96 279.84 51.97 280.87 C54.16 283.08 56.35 285.29 58.53 287.5 C61.98 291 65.44 294.49 68.91 297.97 C78.75 307.89 88.59 317.81 98.41 327.75 C103.83 333.24 109.27 338.73 114.71 344.2 C118.16 347.66 121.6 351.14 125.02 354.62 C127.15 356.79 129.29 358.94 131.44 361.08 C132.44 362.08 133.43 363.09 134.41 364.1 C135.75 365.47 137.11 366.83 138.48 368.19 C139.61 369.33 139.61 369.33 140.77 370.5 C142.92 372.27 142.92 372.27 145.64 371.85 C148.75 370.73 150.37 369.1 152.7 366.74 C153.6 365.84 154.5 364.93 155.43 364 C156.4 363.01 157.37 362.01 158.34 361.02 C159.35 360 160.36 358.98 161.37 357.96 C164.03 355.28 166.67 352.59 169.32 349.9 C173.54 345.6 177.78 341.32 182.03 337.04 C183.5 335.55 184.97 334.05 186.44 332.55 C190.8 328.13 195.11 323.84 200 320 C199.51 315.51 198.05 313.55 194.88 310.39 C193.99 309.49 193.09 308.58 192.17 307.65 C191.17 306.66 190.16 305.67 189.16 304.68 C188.1 303.62 187.05 302.56 185.99 301.5 C183.08 298.58 180.16 295.68 177.24 292.78 C174.09 289.65 170.96 286.5 167.82 283.36 C162.38 277.92 156.94 272.49 151.48 267.06 C143.6 259.21 135.73 251.35 127.87 243.49 C115.1 230.74 102.33 217.99 89.55 205.25 C77.14 192.87 64.72 180.49 52.32 168.1 C51.56 167.34 50.79 166.57 50 165.79 C46.17 161.96 42.33 158.13 38.5 154.3 C6.68 122.52 -25.16 90.76 -57 59 C-55.2 55.13 -52.73 52.46 -49.72 49.5 C-49.19 48.96 -48.65 48.42 -48.1 47.87 C-46.33 46.1 -44.55 44.34 -42.77 42.58 C-41.54 41.35 -40.31 40.12 -39.08 38.9 C-35.85 35.67 -32.61 32.45 -29.37 29.23 C-26.06 25.94 -22.76 22.65 -19.45 19.36 C-12.97 12.9 -6.49 6.45 0 0 Z M317 316 C317 316.66 317 317.32 317 318 C317.66 317.67 318.32 317.34 319 317 C318.34 316.67 317.68 316.34 317 316 Z " fill="#D33341" transform="translate(376,91)"/>
<path d="M0 0 C2.87 1.29 4.79 2.58 6.89 4.91 C7.44 5.51 7.98 6.12 8.55 6.73 C9.15 7.39 9.74 8.06 10.36 8.74 C16.56 15.48 22.94 22.02 29.44 28.47 C30.14 29.17 30.14 29.17 30.85 29.87 C33.3 32.31 35.76 34.74 38.21 37.16 C41.35 40.27 44.48 43.38 47.61 46.5 C48.69 47.57 49.78 48.64 50.86 49.72 C51.4 50.26 51.94 50.79 52.49 51.35 C59.76 58.57 67.03 65.79 74.31 72.99 C79.27 77.89 84.21 82.8 89.15 87.72 C91.75 90.31 94.35 92.9 96.97 95.47 C99.87 98.33 102.75 101.2 105.63 104.08 C106.5 104.93 107.37 105.78 108.26 106.65 C109.43 107.82 109.43 107.82 110.61 109.02 C111.3 109.7 111.98 110.37 112.68 111.07 C114 113 114 113 113.98 114.96 C112.64 117.74 110.86 119.5 108.67 121.67 C108.22 122.13 107.77 122.58 107.3 123.05 C105.78 124.57 104.25 126.08 102.71 127.6 C101.62 128.68 100.53 129.77 99.44 130.86 C97.08 133.21 94.73 135.55 92.37 137.89 C88.64 141.58 84.92 145.29 81.2 148.99 C73.98 156.19 66.75 163.37 59.52 170.56 C50.31 179.7 41.11 188.86 31.92 198.02 C28.22 201.7 24.51 205.38 20.81 209.06 C18.5 211.34 16.2 213.63 13.91 215.92 C12.84 216.99 11.77 218.05 10.69 219.11 C9.23 220.55 7.78 222 6.33 223.45 C5.1 224.67 5.1 224.67 3.85 225.91 C1.8 227.95 1.8 227.95 1 231 C1.53 231.53 2.06 232.06 2.61 232.6 C34.08 263.96 65.54 295.33 96.98 326.72 C100.75 330.49 104.52 334.25 108.29 338.02 C109.04 338.77 109.8 339.52 110.57 340.29 C122.74 352.44 134.92 364.58 147.11 376.72 C159.61 389.17 172.09 401.63 184.57 414.1 C192.27 421.79 199.98 429.48 207.7 437.17 C212.99 442.43 218.27 447.7 223.54 452.97 C226.59 456.02 229.64 459.07 232.7 462.1 C235.5 464.88 238.28 467.66 241.06 470.46 C242.07 471.47 243.08 472.48 244.1 473.48 C245.48 474.84 246.84 476.21 248.2 477.59 C249.35 478.73 249.35 478.73 250.51 479.89 C252 482 252 482 251.87 484.12 C250.5 487.07 248.27 489.16 245.99 491.43 C245.47 491.96 244.95 492.48 244.42 493.03 C242.7 494.77 240.96 496.51 239.23 498.24 C238.03 499.45 236.83 500.65 235.63 501.86 C233.12 504.39 230.6 506.91 228.07 509.43 C224.83 512.66 221.61 515.91 218.4 519.17 C215.93 521.66 213.44 524.15 210.96 526.63 C209.77 527.83 208.58 529.03 207.39 530.23 C205.74 531.9 204.07 533.56 202.4 535.22 C201.91 535.72 201.42 536.22 200.91 536.74 C199.52 538.1 199.52 538.1 197 540 C193.14 539.73 191.25 537.62 188.6 534.97 C187.72 534.1 186.85 533.23 185.94 532.33 C184.97 531.35 184 530.37 183.03 529.39 C181.99 528.36 180.96 527.32 179.92 526.29 C177.08 523.45 174.24 520.6 171.4 517.75 C168.34 514.68 165.27 511.61 162.21 508.55 C156.89 503.24 151.58 497.92 146.28 492.6 C138.61 484.9 130.93 477.21 123.25 469.53 C110.79 457.06 98.34 444.59 85.89 432.11 C73.79 419.99 61.69 407.87 49.59 395.76 C48.85 395.01 48.1 394.26 47.33 393.49 C43.59 389.75 39.85 386 36.11 382.26 C5.06 351.18 -25.97 320.1 -57 289 C-60.92 291.28 -63.92 293.67 -67.14 296.88 C-67.63 297.37 -68.12 297.85 -68.62 298.35 C-70.21 299.93 -71.8 301.53 -73.39 303.12 C-74.5 304.23 -75.61 305.34 -76.73 306.45 C-79.05 308.77 -81.37 311.1 -83.68 313.42 C-86.66 316.41 -89.64 319.38 -92.62 322.35 C-94.91 324.64 -97.2 326.93 -99.49 329.22 C-100.59 330.32 -101.69 331.42 -102.79 332.51 C-104.32 334.04 -105.85 335.58 -107.38 337.12 C-108.25 337.99 -109.12 338.86 -110.02 339.76 C-112.19 341.92 -112.19 341.92 -113 345 C-69.44 388.56 -25.88 432.12 19 477 C15.26 481.37 11.68 485.45 7.64 489.48 C7.14 489.97 6.64 490.47 6.13 490.99 C4.51 492.61 2.88 494.22 1.26 495.84 C0.12 496.97 -1.01 498.11 -2.15 499.24 C-5.11 502.2 -8.08 505.16 -11.05 508.12 C-14.09 511.15 -17.13 514.18 -20.16 517.21 C-26.11 523.14 -32.05 529.07 -38 535 C-41.95 533.4 -44.62 530.66 -47.57 527.69 C-48.12 527.14 -48.67 526.59 -49.24 526.03 C-51.08 524.19 -52.92 522.35 -54.75 520.5 C-56.08 519.19 -57.4 517.87 -58.72 516.55 C-62.3 512.97 -65.88 509.39 -69.46 505.8 C-73.21 502.06 -76.95 498.32 -80.7 494.57 C-86.99 488.29 -93.27 482 -99.55 475.71 C-106.82 468.43 -114.1 461.15 -121.39 453.88 C-127.63 447.64 -133.87 441.4 -140.11 435.16 C-143.84 431.42 -147.57 427.69 -151.31 423.97 C-154.81 420.46 -158.32 416.96 -161.82 413.45 C-163.1 412.16 -164.39 410.87 -165.69 409.58 C-167.44 407.83 -169.19 406.07 -170.94 404.31 C-171.46 403.8 -171.98 403.29 -172.51 402.76 C-176 399.23 -176 399.23 -176 397 C-176.8 396.69 -176.8 396.69 -177.61 396.38 C-181.01 394.42 -183.51 391.78 -186.25 389 C-186.8 388.45 -187.36 387.91 -187.93 387.34 C-192 383.25 -192 383.25 -192 381 C-192.8 380.69 -192.8 380.69 -193.61 380.38 C-197.01 378.42 -199.51 375.78 -202.25 373 C-202.8 372.45 -203.36 371.91 -203.93 371.34 C-208 367.25 -208 367.25 -208 365 C-208.8 364.69 -208.8 364.69 -209.61 364.38 C-213.01 362.42 -215.51 359.78 -218.25 357 C-218.8 356.45 -219.36 355.91 -219.93 355.34 C-224 351.25 -224 351.25 -224 349 C-225.32 348.34 -226.64 347.68 -228 347 C-226.42 343.12 -223.78 340.5 -220.85 337.6 C-220.32 337.08 -219.8 336.55 -219.26 336.01 C-217.53 334.28 -215.8 332.56 -214.06 330.83 C-212.86 329.63 -211.66 328.43 -210.45 327.22 C-207.93 324.71 -205.41 322.19 -202.89 319.68 C-199.65 316.46 -196.41 313.23 -193.18 310 C-190.7 307.51 -188.22 305.04 -185.73 302.56 C-184.54 301.37 -183.34 300.18 -182.15 298.98 C-180.49 297.32 -178.82 295.66 -177.15 294.01 C-176.66 293.51 -176.16 293.02 -175.65 292.51 C-172.23 289.11 -172.23 289.11 -170 288 C-170.66 287.34 -171.32 286.68 -172 286 C-171.28 285.61 -170.56 285.21 -169.82 284.8 C-166.76 282.85 -164.41 280.7 -161.83 278.15 C-161.09 277.43 -161.09 277.43 -160.34 276.69 C-158.74 275.12 -157.14 273.53 -155.54 271.95 C-154.42 270.84 -153.31 269.74 -152.19 268.63 C-149.86 266.32 -147.53 264 -145.21 261.69 C-142.22 258.71 -139.22 255.76 -136.22 252.81 C-133.91 250.54 -131.61 248.26 -129.32 245.97 C-128.22 244.87 -127.11 243.78 -126 242.7 C-124.45 241.18 -122.92 239.65 -121.4 238.11 C-120.52 237.24 -119.65 236.37 -118.74 235.48 C-116.78 233.17 -116.78 233.17 -116.91 230.52 C-118.33 227.22 -120.44 225.03 -122.98 222.57 C-123.5 222.05 -124.01 221.53 -124.55 221 C-126.25 219.3 -127.97 217.61 -129.69 215.92 C-130.88 214.74 -132.07 213.56 -133.25 212.37 C-136.37 209.27 -139.5 206.18 -142.64 203.09 C-145.84 199.93 -149.02 196.76 -152.21 193.6 C-158.46 187.39 -164.73 181.19 -171 175 C-174.48 177.02 -176.99 178.83 -179.56 181.94 C-180.16 182.64 -180.75 183.34 -181.36 184.06 C-181.9 184.7 -182.44 185.34 -183 186 C-185.31 188.5 -185.31 188.5 -187 190 C-187.66 190 -188.32 190 -189 190 C-189.33 190.99 -189.66 191.98 -190 193 C-190.66 193 -191.32 193 -192 193 C-192.33 193.99 -192.66 194.98 -193 196 C-193.66 196 -194.32 196 -195 196 C-195.27 196.59 -195.54 197.19 -195.81 197.8 C-197.01 200.01 -198.2 201.45 -199.98 203.21 C-200.88 204.11 -200.88 204.11 -201.8 205.03 C-202.45 205.66 -203.09 206.3 -203.76 206.95 C-204.42 207.61 -205.08 208.27 -205.77 208.95 C-207.88 211.06 -210 213.15 -212.12 215.25 C-213.56 216.68 -215 218.1 -216.43 219.53 C-219.95 223.03 -223.47 226.51 -227 230 C-230.26 228.57 -232.41 226.83 -234.91 224.3 C-235.66 223.55 -236.42 222.79 -237.19 222.01 C-238.41 220.78 -238.41 220.78 -239.64 219.52 C-240.9 218.25 -240.9 218.25 -242.19 216.96 C-244.88 214.25 -247.57 211.53 -250.25 208.81 C-252.92 206.11 -255.59 203.42 -258.27 200.72 C-259.93 199.05 -261.59 197.37 -263.25 195.69 C-267.47 191.43 -271.77 187.34 -276.33 183.44 C-278.45 181.61 -280.49 179.71 -282.5 177.75 C-283.17 177.11 -283.84 176.46 -284.53 175.8 C-286 174 -286 174 -286 171 C-286.66 170.67 -287.32 170.34 -288 170 C-287.28 169.61 -286.57 169.22 -285.83 168.81 C-282.71 166.82 -280.36 164.6 -277.75 161.98 C-277.25 161.48 -276.75 160.98 -276.24 160.47 C-274.61 158.83 -272.98 157.19 -271.36 155.55 C-270.22 154.41 -269.08 153.27 -267.95 152.13 C-264.96 149.14 -261.99 146.15 -259.02 143.15 C-255.98 140.09 -252.93 137.04 -249.88 133.98 C-243.92 127.99 -237.96 122 -232 116 C-234.22 111.93 -236.83 108.92 -240.11 105.66 C-240.62 105.15 -241.13 104.64 -241.65 104.12 C-243.32 102.45 -244.99 100.8 -246.67 99.14 C-247.83 97.98 -248.99 96.82 -250.15 95.66 C-253.2 92.62 -256.26 89.58 -259.31 86.55 C-262.43 83.45 -265.55 80.35 -268.66 77.24 C-274.77 71.15 -280.88 65.08 -287 59 C-285.55 55.66 -283.71 53.46 -281.14 50.89 C-280.34 50.1 -279.55 49.3 -278.73 48.48 C-277.44 47.19 -277.44 47.19 -276.12 45.89 C-275.23 45 -274.34 44.11 -273.43 43.2 C-271.54 41.32 -269.66 39.44 -267.77 37.57 C-265.37 35.18 -262.98 32.8 -260.59 30.4 C-258.29 28.1 -255.98 25.81 -253.68 23.51 C-252.83 22.66 -251.98 21.82 -251.11 20.94 C-246.78 16.64 -242.39 12.49 -237.74 8.53 C-235.94 6.95 -234.29 5.28 -232.62 3.56 C-230 1 -230 1 -228 1 C-226.65 2.37 -226.65 2.37 -225.04 4.33 C-220.45 9.73 -215.45 14.68 -210.43 19.67 C-209.42 20.68 -208.41 21.68 -207.4 22.69 C-204.77 25.32 -202.13 27.95 -199.49 30.58 C-196.81 33.25 -194.13 35.93 -191.45 38.6 C-186.74 43.3 -182.02 48.01 -177.3 52.71 C-174.86 55.14 -172.43 57.57 -170 60 C-168.69 61.31 -168.69 61.31 -167.34 62.66 C-149.9 80.1 -132.45 97.55 -115 115 C-114.17 115.83 -113.33 116.66 -112.48 117.52 C-109.91 120.09 -107.37 122.67 -104.83 125.27 C-99.87 130.33 -94.89 135.37 -89.9 140.41 C-86.89 143.45 -83.88 146.5 -80.89 149.56 C-77.99 152.53 -75.07 155.48 -72.14 158.43 C-71.03 159.55 -69.92 160.68 -68.82 161.81 C-67.28 163.39 -65.73 164.95 -64.17 166.51 C-63.29 167.4 -62.41 168.3 -61.5 169.22 C-59.17 171.22 -59.17 171.22 -56.51 171.08 C-53.19 169.65 -51.22 167.74 -48.66 165.19 C-48.15 164.69 -47.64 164.19 -47.12 163.68 C-45.45 162.03 -43.79 160.37 -42.14 158.7 C-40.98 157.55 -39.82 156.4 -38.66 155.25 C-36.24 152.83 -33.82 150.41 -31.41 147.98 C-28.31 144.87 -25.2 141.78 -22.08 138.7 C-19.68 136.32 -17.3 133.94 -14.92 131.55 C-13.78 130.4 -12.63 129.26 -11.48 128.13 C-9.87 126.54 -8.28 124.93 -6.69 123.33 C-5.79 122.42 -4.88 121.51 -3.94 120.57 C-1.79 117.72 -1.53 116.48 -2 113 C-2.99 112.67 -3.98 112.34 -5 112 C-6.45 110.53 -6.45 110.53 -8.03 108.6 C-12.58 103.24 -17.55 98.33 -22.53 93.38 C-23.53 92.38 -24.53 91.38 -25.52 90.38 C-28.13 87.78 -30.73 85.19 -33.34 82.59 C-36.01 79.93 -38.68 77.27 -41.35 74.61 C-46.56 69.4 -51.78 64.2 -57 59 C-53.44 54.75 -49.8 50.68 -45.85 46.79 C-45.38 46.33 -44.92 45.87 -44.44 45.39 C-42.5 43.46 -40.55 41.54 -38.6 39.62 C-31.87 33.01 -31.87 33.01 -25.52 26.03 C-20.85 20.56 -15.67 15.56 -10.56 10.5 C-9.53 9.48 -8.51 8.45 -7.48 7.43 C-4.99 4.95 -2.5 2.47 0 0 Z M54 170 C54.33 170.99 54.66 171.98 55 173 C55 172.01 55 171.02 55 170 C54.67 170 54.34 170 54 170 Z M-115 231 C-114 233 -114 233 -114 233 Z " fill="#E13734" transform="translate(809,523)"/>
<path d="M0 0 C1.11 0.94 2.22 1.89 3.33 2.84 C3.95 3.36 4.57 3.89 5.2 4.43 C7.69 6.6 10.02 8.91 12.35 11.26 C13.08 11.99 13.08 11.99 13.82 12.73 C14.86 13.77 15.9 14.82 16.94 15.86 C18.58 17.52 20.22 19.17 21.87 20.82 C25.35 24.31 28.83 27.81 32.31 31.31 C36.36 35.39 40.42 39.46 44.47 43.53 C46.09 45.16 47.71 46.79 49.33 48.42 C50.32 49.41 51.31 50.4 52.29 51.39 C53.16 52.26 54.02 53.13 54.91 54.02 C56.84 56.04 56.84 56.04 59 57 C57.41 60.92 54.72 63.56 51.76 66.49 C50.95 67.3 50.95 67.3 50.12 68.14 C48.29 69.97 46.46 71.79 44.63 73.62 C43.31 74.94 41.99 76.26 40.67 77.59 C37.03 81.23 33.39 84.87 29.75 88.5 C25.82 92.42 21.9 96.34 17.98 100.27 C10.3 107.95 2.61 115.64 -5.08 123.32 C-14.04 132.26 -22.98 141.21 -31.93 150.16 C-48.39 166.62 -64.85 183.07 -81.31 199.51 C-96.33 214.52 -111.35 229.53 -126.36 244.55 C-127.32 245.51 -128.29 246.47 -129.25 247.44 C-129.73 247.91 -130.2 248.39 -130.69 248.88 C-133.09 251.28 -135.49 253.67 -137.89 256.07 C-138.36 256.55 -138.83 257.02 -139.32 257.51 C-154.56 272.75 -169.81 287.99 -185.05 303.22 C-191.29 309.46 -197.53 315.7 -203.77 321.93 C-211.37 329.54 -218.98 337.14 -226.59 344.74 C-230.47 348.62 -234.36 352.5 -238.24 356.38 C-241.79 359.94 -245.35 363.49 -248.9 367.04 C-250.19 368.32 -251.47 369.61 -252.75 370.89 C-264.38 382.53 -264.38 382.53 -270.45 387.67 C-272.78 389.67 -274.95 391.82 -277.13 394 C-278.02 394.88 -278.91 395.77 -279.83 396.69 C-281.18 398.05 -281.18 398.05 -282.56 399.44 C-283.47 400.34 -284.38 401.24 -285.31 402.17 C-289.14 406.01 -292.93 409.84 -296.46 413.96 C-301.05 419.32 -306.12 424.22 -311.12 429.19 C-312.11 430.17 -313.1 431.15 -314.08 432.13 C-315.89 433.94 -317.71 435.74 -319.52 437.54 C-320.34 438.35 -321.16 439.16 -322 440 C-322.89 440.88 -323.78 441.76 -324.69 442.67 C-327.45 445.46 -329.94 448.42 -332.45 451.43 C-332.96 451.95 -333.47 452.46 -334 453 C-334.66 453 -335.32 453 -336 453 C-336.27 453.6 -336.54 454.2 -336.81 454.81 C-338 457 -339.1 458.41 -341 460 C-341.66 460 -342.32 460 -343 460 C-343.33 460.99 -343.66 461.98 -344 463 C-344.66 463 -345.32 463 -346 463 C-346.27 463.59 -346.53 464.18 -346.81 464.79 C-348.02 467.04 -349.26 468.5 -351.07 470.3 C-352 471.23 -352 471.23 -352.95 472.18 C-353.62 472.84 -354.29 473.49 -354.98 474.17 C-355.66 474.85 -356.35 475.54 -357.05 476.24 C-359.24 478.41 -361.43 480.58 -363.62 482.75 C-365.11 484.22 -366.59 485.7 -368.08 487.18 C-371.71 490.79 -375.36 494.4 -379 498 C-382.92 496.41 -385.56 493.72 -388.49 490.77 C-389.02 490.24 -389.56 489.71 -390.11 489.16 C-391.87 487.4 -393.63 485.64 -395.39 483.88 C-396.61 482.66 -397.84 481.43 -399.06 480.21 C-401.63 477.65 -404.19 475.08 -406.75 472.52 C-410.03 469.22 -413.32 465.94 -416.61 462.66 C-419.14 460.13 -421.67 457.61 -424.19 455.08 C-425.4 453.86 -426.62 452.65 -427.83 451.44 C-429.53 449.75 -431.21 448.06 -432.9 446.36 C-433.41 445.86 -433.91 445.36 -434.43 444.84 C-436.69 442.55 -437.97 441.1 -439 438 C-438.55 437.62 -438.1 437.24 -437.64 436.85 C-431.46 431.55 -425.69 425.86 -419.94 420.11 C-418.9 419.07 -417.85 418.03 -416.81 416.99 C-414.64 414.83 -412.48 412.67 -410.32 410.5 C-407.54 407.72 -404.76 404.95 -401.97 402.19 C-399.82 400.05 -397.68 397.91 -395.54 395.77 C-394.52 394.75 -393.49 393.72 -392.46 392.7 C-391.03 391.28 -389.61 389.86 -388.19 388.43 C-387.38 387.62 -386.57 386.81 -385.73 385.98 C-383.78 384.19 -383.78 384.19 -384 382 C-383.29 381.94 -382.58 381.88 -381.85 381.82 C-378.11 380.74 -376.04 378.58 -373.4 375.87 C-372.86 375.34 -372.33 374.8 -371.78 374.25 C-370.01 372.49 -368.26 370.72 -366.52 368.94 C-365.29 367.71 -364.07 366.49 -362.84 365.26 C-360.28 362.69 -357.73 360.12 -355.18 357.54 C-351.91 354.22 -348.62 350.92 -345.34 347.63 C-342.21 344.48 -339.08 341.34 -335.95 338.19 C-335.35 337.59 -334.76 336.99 -334.14 336.37 C-332.45 334.67 -330.77 332.96 -329.08 331.26 C-328.58 330.75 -328.08 330.25 -327.56 329.73 C-324.96 327.11 -324.96 327.11 -323 324 C-323.66 323.67 -324.32 323.34 -325 323 C-324.29 322.62 -323.58 322.23 -322.85 321.84 C-319.64 319.77 -317.06 317.33 -314.39 314.63 C-313.84 314.09 -313.3 313.55 -312.73 312.99 C-310.9 311.16 -309.08 309.32 -307.25 307.49 C-305.93 306.17 -304.6 304.85 -303.28 303.52 C-299.64 299.89 -296 296.24 -292.37 292.6 C-288.45 288.67 -284.52 284.75 -280.6 280.83 C-273.8 274.03 -267 267.22 -260.21 260.42 C-250.39 250.58 -240.56 240.75 -230.73 230.92 C-214.78 214.97 -198.84 199.01 -182.9 183.05 C-167.42 167.55 -151.93 152.05 -136.44 136.55 C-135.97 136.08 -135.49 135.6 -135 135.11 C-130.2 130.31 -125.41 125.51 -120.61 120.71 C-80.4 80.48 -40.2 40.24 0 0 Z " fill="#E13734" transform="translate(1075,141)"/>
<path d="M0 0 C3.29 1.1 3.91 1.81 6.04 4.41 C10.53 9.69 15.41 14.55 20.32 19.44 C21.36 20.48 22.39 21.51 23.43 22.55 C26.26 25.38 29.09 28.21 31.92 31.03 C34.98 34.09 38.04 37.15 41.09 40.21 C46.39 45.5 51.68 50.79 56.98 56.08 C64.64 63.73 72.29 71.39 79.95 79.04 C92.37 91.47 104.8 103.89 117.23 116.31 C129.3 128.36 141.36 140.42 153.42 152.48 C154.17 153.22 154.91 153.96 155.68 154.73 C159.41 158.46 163.14 162.19 166.87 165.92 C195.66 194.7 224.44 223.47 253.23 252.24 C254.1 253.11 254.97 253.98 255.87 254.87 C257 256 257 256 258.16 257.16 C259.44 258.44 260.72 259.72 262 261 C261.56 261.37 261.11 261.75 260.65 262.13 C254.32 267.56 248.45 273.42 242.57 279.33 C241.49 280.42 240.41 281.5 239.32 282.58 C236.5 285.41 233.67 288.25 230.85 291.08 C227.97 293.97 225.09 296.86 222.2 299.75 C217.15 304.81 212.1 309.88 207.05 314.95 C205.7 316.3 204.35 317.65 203 319 C117.2 233.2 31.4 147.4 -57 59 C-55.03 55.05 -52.8 52.53 -49.72 49.5 C-49.19 48.96 -48.65 48.42 -48.1 47.87 C-46.33 46.1 -44.55 44.34 -42.77 42.58 C-41.54 41.35 -40.31 40.12 -39.08 38.9 C-35.85 35.67 -32.61 32.45 -29.37 29.23 C-26.06 25.94 -22.76 22.65 -19.45 19.36 C-12.97 12.9 -6.49 6.45 0 0 Z " fill="#2E82B7" transform="translate(376,91)"/>
<path d="M0 0 C0.66 0 1.32 0 2 0 C2 0.66 2 1.32 2 2 C2.68 2.16 3.36 2.33 4.06 2.5 C7.7 4.36 9.58 6.73 12.17 9.84 C14.92 13.09 17.96 16.02 21 19 C22.67 20.67 24.33 22.33 26 24 C26.9 24.9 27.79 25.79 28.72 26.72 C36.81 34.81 44.91 42.91 53 51 C53.54 51.52 54.09 52.05 54.65 52.59 C56.27 54.28 57.61 56.12 59 58 C58.52 58.41 58.03 58.83 57.53 59.25 C52.47 63.62 47.67 68.19 42.95 72.92 C42.19 73.68 41.43 74.44 40.65 75.22 C38.16 77.7 35.67 80.19 33.18 82.68 C31.44 84.43 29.7 86.17 27.95 87.91 C24.31 91.55 20.67 95.2 17.03 98.84 C12.38 103.5 7.72 108.15 3.06 112.8 C-0.54 116.4 -4.13 119.99 -7.72 123.59 C-9.44 125.31 -11.16 127.02 -12.87 128.74 C-15.28 131.14 -17.68 133.54 -20.08 135.95 C-21.13 137 -21.13 137 -22.2 138.07 C-22.87 138.73 -23.53 139.4 -24.21 140.09 C-24.78 140.65 -25.34 141.22 -25.93 141.8 C-27.78 143.76 -29.54 145.77 -31.31 147.81 C-34.69 151.69 -38.22 155.36 -41.86 159 C-42.51 159.65 -43.16 160.31 -43.84 160.99 C-46 163.16 -48.17 165.33 -50.34 167.5 C-51.91 169.07 -53.47 170.64 -55.03 172.21 C-59.26 176.45 -63.49 180.68 -67.72 184.92 C-70.36 187.56 -73 190.21 -75.64 192.86 C-83.91 201.14 -92.18 209.41 -100.45 217.69 C-101.4 218.64 -102.35 219.59 -103.3 220.54 C-103.77 221.01 -104.24 221.48 -104.72 221.96 C-112.37 229.62 -120.01 237.28 -127.65 244.94 C-135.51 252.82 -143.36 260.68 -151.23 268.55 C-155.64 272.96 -160.05 277.38 -164.45 281.8 C-168.58 285.95 -172.72 290.09 -176.87 294.23 C-178.39 295.75 -179.92 297.28 -181.43 298.8 C-183.5 300.88 -185.57 302.95 -187.65 305.02 C-188.26 305.63 -188.86 306.24 -189.48 306.88 C-193.66 311 -193.66 311 -197 311 C-198.46 309.62 -198.46 309.62 -200.04 307.66 C-204.53 302.3 -209.46 297.41 -214.42 292.48 C-215.41 291.49 -216.41 290.5 -217.4 289.51 C-219.98 286.93 -222.57 284.35 -225.17 281.77 C-227.81 279.14 -230.44 276.5 -233.08 273.87 C-237.71 269.25 -242.34 264.63 -246.98 260.02 C-248.65 258.35 -250.33 256.67 -252 255 C-251.3 254.32 -250.6 253.64 -249.88 252.94 C-247.85 250.92 -246 248.83 -244.19 246.62 C-241.37 243.27 -238.22 240.52 -234.88 237.7 C-233.17 236.15 -231.75 234.61 -230.31 232.81 C-228.07 230.08 -225.75 228.19 -223 226 C-222.36 225.2 -221.72 224.39 -221.06 223.56 C-218.67 220.59 -215.92 218.44 -213 216 C-211.64 214.35 -210.31 212.69 -209 211 C-207.36 209.31 -205.69 207.65 -204 206 C-203.37 205.36 -202.73 204.71 -202.08 204.05 C-196.52 198.41 -196.52 198.41 -193.44 196 C-191.27 194.22 -189.65 192.5 -187.84 190.37 C-184.12 186.08 -180.19 182.06 -176.17 178.07 C-175.42 177.31 -174.66 176.55 -173.88 175.77 C-171.36 173.26 -168.84 170.75 -166.31 168.23 C-164.5 166.42 -162.69 164.61 -160.87 162.8 C-156.98 158.91 -153.08 155.03 -149.18 151.14 C-143.55 145.52 -137.91 139.9 -132.28 134.27 C-123.14 125.14 -114 116.02 -104.86 106.89 C-104.31 106.35 -103.77 105.8 -103.2 105.24 C-95.43 97.49 -87.66 89.73 -79.89 81.98 C-79.34 81.44 -78.79 80.89 -78.23 80.32 C-77.68 79.78 -77.13 79.23 -76.57 78.67 C-67.45 69.57 -58.33 60.47 -49.22 51.36 C-43.6 45.75 -37.97 40.14 -32.34 34.53 C-28.04 30.24 -23.75 25.95 -19.45 21.66 C-17.68 19.89 -15.91 18.13 -14.14 16.37 C-11.74 13.97 -9.34 11.57 -6.94 9.17 C-6.23 8.47 -5.52 7.76 -4.78 7.04 C-3.83 6.08 -3.83 6.08 -2.85 5.1 C-2.3 4.54 -1.74 3.99 -1.17 3.42 C0.21 2.05 0.21 2.05 0 0 Z " fill="#E13734" transform="translate(578,868)"/>
<path d="M0 0 C1.35 1.37 1.35 1.37 2.96 3.33 C7.55 8.73 12.55 13.68 17.57 18.67 C18.58 19.68 19.59 20.68 20.6 21.69 C23.23 24.32 25.87 26.95 28.51 29.58 C31.19 32.25 33.87 34.93 36.55 37.6 C41.26 42.3 45.98 47.01 50.7 51.71 C53.14 54.14 55.57 56.57 58 59 C59.31 60.31 59.31 60.31 60.66 61.66 C97.77 98.77 134.89 135.89 172 173 C166.5 179.7 160.39 185.74 154.26 191.84 C153.12 192.97 151.99 194.11 150.85 195.24 C147.89 198.2 144.92 201.16 141.95 204.12 C138.91 207.15 135.87 210.18 132.84 213.21 C126.89 219.14 120.95 225.07 115 231 C108.3 225.5 102.26 219.39 96.16 213.26 C95.03 212.12 93.89 210.99 92.76 209.85 C89.8 206.89 86.84 203.92 83.88 200.95 C80.85 197.91 77.82 194.87 74.79 191.84 C68.86 185.89 62.93 179.95 57 174 C53.52 176.02 51.01 177.83 48.44 180.94 C47.84 181.64 47.25 182.34 46.64 183.06 C46.1 183.7 45.56 184.34 45 185 C42.69 187.5 42.69 187.5 41 189 C40.34 189 39.68 189 39 189 C38.67 189.99 38.34 190.98 38 192 C37.34 192 36.68 192 36 192 C35.67 192.99 35.34 193.98 35 195 C34.34 195 33.68 195 33 195 C32.73 195.59 32.46 196.19 32.19 196.8 C30.99 199.01 29.8 200.45 28.02 202.21 C27.12 203.11 27.12 203.11 26.2 204.03 C25.55 204.66 24.91 205.3 24.24 205.95 C23.58 206.61 22.92 207.27 22.23 207.95 C20.12 210.06 18 212.15 15.88 214.25 C14.44 215.68 13 217.1 11.57 218.53 C8.05 222.03 4.53 225.51 1 229 C-2.26 227.57 -4.41 225.83 -6.91 223.3 C-7.66 222.55 -8.42 221.79 -9.19 221.01 C-10.41 219.78 -10.41 219.78 -11.64 218.52 C-12.9 217.25 -12.9 217.25 -14.19 215.96 C-16.88 213.25 -19.57 210.53 -22.25 207.81 C-24.92 205.11 -27.59 202.42 -30.27 199.72 C-31.93 198.05 -33.59 196.37 -35.25 194.69 C-39.47 190.43 -43.77 186.34 -48.33 182.44 C-50.45 180.61 -52.49 178.71 -54.5 176.75 C-55.17 176.11 -55.84 175.46 -56.53 174.8 C-58 173 -58 173 -58 170 C-58.66 169.67 -59.32 169.34 -60 169 C-59.28 168.61 -58.57 168.22 -57.83 167.81 C-54.71 165.82 -52.36 163.6 -49.75 160.98 C-49.25 160.48 -48.75 159.98 -48.24 159.47 C-46.61 157.83 -44.98 156.19 -43.36 154.55 C-42.22 153.41 -41.08 152.27 -39.95 151.13 C-36.96 148.14 -33.99 145.15 -31.02 142.15 C-27.98 139.09 -24.93 136.04 -21.88 132.98 C-15.92 126.99 -9.96 121 -4 115 C-6.22 110.93 -8.83 107.92 -12.11 104.66 C-12.62 104.15 -13.13 103.64 -13.65 103.12 C-15.32 101.45 -16.99 99.8 -18.67 98.14 C-19.83 96.98 -20.99 95.82 -22.15 94.66 C-25.2 91.62 -28.26 88.58 -31.31 85.55 C-34.43 82.45 -37.55 79.35 -40.66 76.24 C-46.77 70.15 -52.88 64.08 -59 58 C-57.55 54.66 -55.71 52.46 -53.14 49.89 C-52.34 49.1 -51.55 48.3 -50.73 47.48 C-49.44 46.19 -49.44 46.19 -48.12 44.89 C-47.23 44 -46.34 43.11 -45.43 42.2 C-43.54 40.32 -41.66 38.44 -39.77 36.57 C-37.37 34.18 -34.98 31.8 -32.59 29.4 C-30.29 27.1 -27.98 24.81 -25.68 22.51 C-24.83 21.66 -23.98 20.82 -23.11 19.94 C-18.78 15.64 -14.39 11.49 -9.74 7.53 C-7.94 5.95 -6.29 4.28 -4.62 2.56 C-2 0 -2 0 0 0 Z " fill="#2E81B6" transform="translate(581,524)"/>
<path d="M0 0 C1.38 0 1.38 0 2.79 0.01 C3.8 0.02 4.82 0.02 5.86 0.03 C6.93 0.04 7.99 0.04 9.09 0.05 C12.63 0.07 16.16 0.09 19.7 0.12 C22.15 0.13 24.6 0.15 27.05 0.17 C32.2 0.2 37.34 0.25 42.49 0.29 C49.09 0.34 55.69 0.38 62.28 0.41 C67.35 0.44 72.41 0.48 77.48 0.53 C79.91 0.55 82.35 0.56 84.78 0.57 C88.18 0.58 91.58 0.62 94.98 0.65 C96.49 0.65 96.49 0.65 98.04 0.65 C98.97 0.67 99.9 0.68 100.85 0.7 C102.06 0.71 102.06 0.71 103.29 0.71 C109.78 1.79 114.08 7.28 118.51 11.73 C119.3 12.51 120.09 13.29 120.91 14.1 C123.55 16.73 126.19 19.37 128.83 22 C130.72 23.89 132.61 25.78 134.51 27.66 C139.65 32.78 144.79 37.91 149.93 43.05 C153.13 46.25 156.34 49.45 159.55 52.65 C168.43 61.51 177.31 70.37 186.18 79.24 C186.75 79.81 187.32 80.38 187.9 80.96 C189.05 82.11 190.2 83.26 191.35 84.41 C191.92 84.98 192.49 85.55 193.08 86.14 C193.65 86.71 194.22 87.28 194.81 87.87 C204.09 97.15 213.38 106.41 222.67 115.66 C232.21 125.16 241.74 134.67 251.26 144.19 C256.61 149.54 261.96 154.88 267.32 160.21 C271.88 164.75 276.43 169.3 280.97 173.85 C283.29 176.18 285.62 178.5 287.95 180.81 C290.47 183.31 292.98 185.83 295.48 188.35 C296.23 189.09 296.98 189.82 297.74 190.57 C298.41 191.25 299.07 191.92 299.76 192.62 C300.63 193.49 300.63 193.49 301.52 194.38 C302.62 196.1 302.62 196.1 302.43 198.16 C301.16 201.19 298.9 203.25 296.61 205.53 C296.09 206.06 295.57 206.59 295.03 207.13 C293.31 208.88 291.58 210.61 289.85 212.34 C288.65 213.55 287.45 214.76 286.25 215.96 C283.73 218.49 281.21 221.01 278.69 223.53 C275.45 226.76 272.23 230.01 269.02 233.27 C266.54 235.77 264.06 238.25 261.58 240.74 C260.38 241.93 259.19 243.13 258.01 244.33 C256.36 246.01 254.69 247.67 253.01 249.32 C252.28 250.08 252.28 250.08 251.53 250.84 C250.14 252.2 250.14 252.2 247.62 254.1 C243.76 253.84 241.87 251.73 239.22 249.08 C238.34 248.21 237.46 247.34 236.56 246.44 C235.59 245.46 234.62 244.48 233.65 243.5 C232.61 242.47 231.58 241.44 230.54 240.41 C227.69 237.58 224.85 234.73 222.02 231.88 C218.96 228.81 215.89 225.75 212.82 222.69 C206.81 216.69 200.81 210.69 194.82 204.68 C187.84 197.68 180.85 190.7 173.87 183.72 C161.41 171.26 148.95 158.79 136.5 146.33 C124.41 134.21 112.31 122.11 100.21 110.01 C87.04 96.85 73.87 83.68 60.71 70.51 C59.31 69.11 57.91 67.7 56.51 66.3 C55.47 65.26 55.47 65.26 54.42 64.21 C49.54 59.33 44.67 54.46 39.79 49.58 C33.86 43.65 27.92 37.71 22 31.77 C18.97 28.73 15.94 25.7 12.91 22.67 C10.13 19.9 7.37 17.13 4.6 14.35 C3.6 13.35 2.59 12.34 1.58 11.34 C0.22 9.98 -1.13 8.61 -2.49 7.25 C-3.25 6.49 -4 5.73 -4.78 4.95 C-6.38 3.1 -6.38 3.1 -6.38 1.1 C-4.02 -0.08 -2.63 -0.01 0 0 Z " fill="#2E82B7" transform="translate(758.3828887939453,808.8975219726563)"/>
<path d="M0 0 C4.14 2.24 7.33 5.04 10.62 8.36 C11.15 8.89 11.69 9.43 12.24 9.97 C14.01 11.73 15.76 13.49 17.52 15.25 C18.75 16.48 19.97 17.7 21.2 18.93 C23.76 21.49 26.32 24.05 28.88 26.61 C32.16 29.91 35.45 33.19 38.75 36.48 C41.28 39 43.8 41.53 46.32 44.06 C47.54 45.27 48.75 46.48 49.97 47.69 C51.66 49.38 53.35 51.08 55.03 52.77 C55.54 53.27 56.04 53.78 56.57 54.29 C60 57.77 60 57.77 60 60 C58.64 61.33 58.64 61.33 56.7 62.93 C51.64 67.23 46.99 71.91 42.33 76.63 C40.76 78.22 39.18 79.8 37.61 81.38 C33.14 85.88 28.68 90.37 24.22 94.88 C21.48 97.64 18.73 100.41 15.98 103.17 C14.94 104.22 13.9 105.27 12.86 106.32 C11.41 107.79 9.96 109.25 8.51 110.7 C7.68 111.54 6.86 112.37 6.01 113.22 C4 115 4 115 2 115 C1.67 115.99 1.34 116.98 1 118 C0.34 118 -0.32 118 -1 118 C-1.26 118.6 -1.52 119.2 -1.79 119.81 C-3.09 122.16 -4.28 123.31 -6.36 124.98 C-11.74 129.54 -16.64 134.55 -21.6 139.56 C-23.34 141.31 -25.08 143.06 -26.82 144.81 C-31.77 149.78 -36.71 154.76 -41.64 159.74 C-44.68 162.8 -47.72 165.86 -50.76 168.91 C-51.91 170.07 -53.07 171.23 -54.22 172.4 C-55.82 174.02 -57.43 175.63 -59.03 177.25 C-59.95 178.17 -60.86 179.09 -61.8 180.04 C-64 182 -64 182 -66 182 C-66.27 182.6 -66.54 183.2 -66.82 183.82 C-68 185.99 -69.05 187.21 -70.87 188.85 C-71.48 189.4 -72.09 189.96 -72.71 190.53 C-73.4 191.15 -74.08 191.76 -74.78 192.4 C-83.09 200.07 -91.09 208.02 -99.07 216.04 C-100.33 217.31 -101.6 218.58 -102.86 219.85 C-108.1 225.11 -113.33 230.38 -118.55 235.65 C-121.79 238.91 -125.03 242.17 -128.28 245.43 C-129.5 246.65 -130.72 247.88 -131.93 249.11 C-137.97 255.22 -143.9 261.1 -151 266 C-158.46 258.65 -165.91 251.29 -173.35 243.91 C-176.8 240.49 -180.26 237.07 -183.72 233.65 C-187.07 230.37 -190.4 227.06 -193.72 223.75 C-194.99 222.49 -196.27 221.23 -197.55 219.98 C-199.34 218.23 -201.11 216.46 -202.88 214.69 C-203.42 214.17 -203.95 213.65 -204.51 213.11 C-205.96 211.64 -205.96 211.64 -208 209 C-207.91 206.1 -207.32 205.33 -205.29 203.25 C-204.25 202.42 -204.25 202.42 -203.19 201.56 C-200.84 199.61 -198.92 197.89 -197 195.5 C-195.3 193.38 -193.82 191.94 -191.75 190.22 C-185.85 185.11 -180.42 179.53 -174.92 173.99 C-172.9 171.96 -170.88 169.94 -168.86 167.91 C-164.57 163.61 -160.28 159.31 -156 155 C-151.03 150.01 -146.06 145.01 -141.08 140.03 C-139.1 138.04 -137.13 136.05 -135.15 134.07 C-129.95 128.84 -124.77 123.71 -119.15 118.93 C-114.21 114.5 -109.6 109.7 -104.92 104.99 C-102.9 102.96 -100.88 100.94 -98.86 98.91 C-94.57 94.61 -90.28 90.31 -86 86 C-81.03 81.01 -76.06 76.01 -71.08 71.03 C-69.1 69.04 -67.13 67.05 -65.15 65.07 C-59.89 59.78 -54.64 54.56 -48.96 49.73 C-44.51 45.8 -40.38 41.52 -36.19 37.32 C-35.17 36.31 -34.16 35.29 -33.14 34.27 C-31.02 32.16 -28.91 30.05 -26.8 27.93 C-24.09 25.21 -21.38 22.5 -18.66 19.79 C-16.57 17.7 -14.47 15.61 -12.38 13.52 C-11.38 12.52 -10.38 11.52 -9.38 10.52 C-7.99 9.13 -6.6 7.73 -5.21 6.34 C-4.42 5.55 -3.63 4.76 -2.81 3.94 C-0.94 2.12 -0.94 2.12 0 0 Z " fill="#D33341" transform="translate(346,636)"/>
<path d="M0 0 C3.93 1.59 6.58 4.31 9.5 7.28 C10.04 7.81 10.58 8.35 11.13 8.9 C12.9 10.67 14.66 12.45 16.42 14.23 C17.65 15.46 18.88 16.69 20.1 17.92 C23.33 21.15 26.55 24.39 29.77 27.63 C33.06 30.94 36.35 34.24 39.64 37.55 C46.1 44.03 52.55 50.51 59 57 C57.39 60.4 55.6 62.66 52.94 65.33 C52.14 66.13 51.34 66.93 50.52 67.75 C49.69 68.57 48.86 69.4 48 70.25 C46.75 71.51 46.75 71.51 45.48 72.8 C44.68 73.59 43.88 74.38 43.06 75.2 C42.33 75.93 41.6 76.66 40.85 77.41 C39 79 39 79 37 79 C36.67 79.99 36.34 80.98 36 82 C35.34 82 34.68 82 34 82 C33.67 82.99 33.34 83.98 33 85 C32.34 85 31.68 85 31 85 C30.67 85.99 30.34 86.98 30 88 C28.65 89.32 28.65 89.32 26.83 90.8 C20.8 95.92 15.31 101.58 9.73 107.19 C7.68 109.26 5.63 111.32 3.57 113.38 C-0.79 117.75 -5.14 122.12 -9.5 126.5 C-14.55 131.58 -19.61 136.65 -24.67 141.72 C-26.68 143.74 -28.69 145.76 -30.69 147.78 C-35.97 153.08 -41.23 158.31 -46.93 163.16 C-52.11 167.77 -56.92 172.8 -61.81 177.71 C-63.03 178.94 -64.26 180.16 -65.48 181.38 C-68.67 184.58 -71.86 187.78 -75.05 190.98 C-78.31 194.25 -81.57 197.52 -84.84 200.79 C-91.23 207.19 -97.62 213.59 -104 220 C-107.4 218.37 -110.17 216.52 -113 214 C-113 213.34 -113 212.68 -113 212 C-113.87 211.63 -113.87 211.63 -114.75 211.25 C-117.33 209.82 -119.06 208.22 -121 206 C-121 205.34 -121 204.68 -121 204 C-121.58 203.75 -122.16 203.49 -122.75 203.23 C-125.25 201.86 -126.93 200.33 -128.94 198.32 C-129.7 197.56 -130.46 196.81 -131.25 196.03 C-132.06 195.22 -132.87 194.4 -133.7 193.56 C-134.54 192.73 -135.38 191.89 -136.24 191.03 C-138.01 189.26 -139.77 187.49 -141.54 185.72 C-144.25 183 -146.97 180.29 -149.69 177.59 C-151.4 175.87 -153.12 174.15 -154.83 172.44 C-156.06 171.22 -156.06 171.22 -157.31 169.97 C-158.43 168.84 -158.43 168.84 -159.58 167.68 C-160.24 167.02 -160.9 166.35 -161.58 165.67 C-163 164 -163 164 -163 162 C-163.66 161.67 -164.32 161.34 -165 161 C-164.17 160.39 -164.17 160.39 -163.33 159.76 C-154.97 153.34 -147.71 145.94 -140.3 138.46 C-138.9 137.06 -137.5 135.65 -136.1 134.24 C-132.43 130.56 -128.77 126.88 -125.11 123.19 C-119.25 117.29 -113.38 111.39 -107.51 105.49 C-105.47 103.45 -103.44 101.4 -101.41 99.35 C-96.12 94.02 -90.86 88.78 -85.14 83.92 C-80.2 79.49 -75.59 74.7 -70.92 69.99 C-68.9 67.96 -66.88 65.94 -64.86 63.91 C-60.57 59.61 -56.28 55.31 -52 51 C-47.03 46.01 -42.06 41.01 -37.08 36.03 C-35.1 34.04 -33.13 32.05 -31.15 30.07 C-20.31 19.18 -20.31 19.18 -14.61 14.38 C-11.58 11.78 -8.8 8.91 -6 6.06 C-5.42 5.47 -4.83 4.89 -4.23 4.28 C-2.82 2.86 -1.41 1.43 0 0 Z " fill="#D33340" transform="translate(801,189)"/>
<path d="M0 0 C6.96 5.69 13.21 12.07 19.54 18.43 C20.81 19.69 22.07 20.96 23.33 22.22 C26.74 25.63 30.15 29.04 33.56 32.46 C37.12 36.03 40.69 39.6 44.26 43.17 C51.02 49.92 57.76 56.68 64.51 63.44 C72.2 71.14 79.89 78.83 87.58 86.53 C103.39 102.35 119.2 118.17 135 134 C131.37 138.33 127.64 142.48 123.64 146.48 C123.14 146.97 122.64 147.47 122.13 147.99 C120.51 149.61 118.88 151.22 117.26 152.84 C116.12 153.97 114.99 155.11 113.85 156.24 C110.89 159.2 107.92 162.16 104.95 165.12 C101.91 168.15 98.87 171.18 95.84 174.21 C89.89 180.14 83.95 186.07 78 192 C74.12 190.41 71.49 187.77 68.58 184.85 C68.04 184.32 67.51 183.79 66.96 183.25 C65.16 181.47 63.38 179.69 61.6 177.9 C60.31 176.63 59.03 175.35 57.75 174.08 C54.26 170.62 50.79 167.15 47.31 163.68 C45.14 161.51 42.97 159.35 40.8 157.18 C33.23 149.64 25.66 142.08 18.1 134.53 C11.04 127.47 3.97 120.43 -3.1 113.4 C-9.17 107.36 -15.23 101.32 -21.28 95.27 C-24.9 91.65 -28.52 88.04 -32.15 84.44 C-35.56 81.05 -38.96 77.65 -42.35 74.25 C-43.6 73 -44.86 71.75 -46.11 70.51 C-47.83 68.82 -49.52 67.11 -51.21 65.4 C-51.97 64.66 -51.97 64.66 -52.75 63.91 C-54.1 62.52 -54.1 62.52 -56 60 C-55.87 55.77 -52.82 53.42 -49.95 50.62 C-49.42 50.1 -48.89 49.57 -48.35 49.03 C-46.62 47.3 -44.87 45.59 -43.12 43.87 C-41.92 42.67 -40.71 41.47 -39.5 40.27 C-36.33 37.11 -33.14 33.96 -29.96 30.81 C-24.85 25.77 -19.76 20.71 -14.67 15.65 C-12.89 13.88 -11.11 12.12 -9.32 10.36 C-8.23 9.28 -7.14 8.2 -6.05 7.12 C-5.55 6.63 -5.06 6.14 -4.54 5.63 C-1.94 3.07 -1.94 3.07 0 0 Z " fill="#2E82B7" transform="translate(693,866)"/>
<path d="M0 0 C3.23 1.42 5.38 3.14 7.86 5.64 C8.98 6.75 8.98 6.75 10.12 7.89 C10.91 8.7 11.71 9.5 12.53 10.33 C13.35 11.16 14.18 11.99 15.03 12.84 C17.67 15.5 20.3 18.15 22.94 20.81 C24.71 22.59 26.48 24.37 28.25 26.15 C31.5 29.42 34.76 32.7 38.01 35.98 C38.7 36.68 39.4 37.38 40.12 38.1 C41.26 39.26 42.41 40.42 43.56 41.58 C45.47 43.52 47.37 45.3 49.5 47 C52.23 49.18 54.67 51.4 57 54 C57 54.99 57 55.98 57 57 C57.55 57.23 58.1 57.45 58.67 57.68 C61.72 59.4 63.82 61.59 66.29 64.08 C66.8 64.59 67.32 65.11 67.85 65.64 C69.54 67.34 71.23 69.05 72.91 70.75 C74.09 71.94 75.27 73.12 76.45 74.3 C79.54 77.41 82.64 80.53 85.73 83.65 C90.68 88.64 95.64 93.63 100.6 98.62 C102.33 100.36 104.07 102.11 105.8 103.86 C106.85 104.92 107.91 105.99 108.97 107.05 C109.9 107.99 110.82 108.92 111.77 109.88 C113.81 112.03 113.81 112.03 116 113 C114.41 116.93 111.69 119.58 108.72 122.5 C108.19 123.04 107.65 123.58 107.1 124.13 C105.33 125.9 103.55 127.66 101.77 129.42 C100.54 130.65 99.31 131.88 98.08 133.1 C94.85 136.33 91.61 139.55 88.37 142.77 C85.06 146.06 81.76 149.35 78.45 152.64 C71.97 159.1 65.49 165.55 59 172 C55.1 170.41 52.48 167.75 49.58 164.8 C49.05 164.27 48.52 163.75 47.97 163.2 C46.23 161.46 44.49 159.7 42.75 157.95 C41.54 156.73 40.32 155.51 39.11 154.29 C35.91 151.09 32.71 147.87 29.52 144.66 C26.28 141.4 23.04 138.15 19.79 134.89 C14.55 129.63 9.31 124.36 4.07 119.09 C-0.69 114.31 -5.46 109.54 -10.27 104.81 C-15.32 99.84 -20.37 94.85 -25.41 89.85 C-28.45 86.83 -31.5 83.82 -34.56 80.82 C-37.53 77.9 -40.48 74.98 -43.43 72.05 C-44.55 70.93 -45.68 69.82 -46.81 68.72 C-48.39 67.17 -49.95 65.62 -51.51 64.06 C-52.4 63.17 -53.3 62.29 -54.22 61.38 C-56 59 -56 59 -56.1 57.03 C-54.49 54.06 -52.23 51.84 -49.84 49.5 C-49.3 48.96 -48.76 48.42 -48.21 47.87 C-46.44 46.1 -44.65 44.34 -42.87 42.58 C-41.64 41.35 -40.41 40.12 -39.18 38.9 C-35.94 35.67 -32.69 32.45 -29.44 29.23 C-26.12 25.94 -22.81 22.65 -19.5 19.36 C-13.01 12.9 -6.51 6.44 0 0 Z " fill="#BBC436" transform="translate(636,352)"/>
<path d="M0 0 C0.66 0 1.32 0 2 0 C2 0.66 2 1.32 2 2 C2.55 2.22 3.1 2.45 3.66 2.68 C6.71 4.4 8.97 6.71 11.41 9.18 C11.94 9.71 12.47 10.24 13.01 10.78 C14.75 12.52 16.47 14.26 18.2 16.01 C19.41 17.22 20.61 18.42 21.82 19.63 C24.99 22.81 28.15 25.99 31.31 29.17 C34.53 32.42 37.77 35.66 41 38.9 C47.34 45.26 53.67 51.63 60 58 C58.49 61.55 56.42 63.83 53.7 66.54 C52.79 67.45 51.89 68.35 50.96 69.29 C49.96 70.28 48.95 71.28 47.95 72.28 C46.9 73.33 45.84 74.39 44.79 75.44 C41.93 78.3 39.06 81.16 36.19 84.01 C33.19 87 30.2 89.99 27.21 92.98 C21.54 98.64 15.87 104.29 10.2 109.94 C3.74 116.38 -2.71 122.82 -9.16 129.26 C-22.44 142.52 -35.72 155.76 -49 169 C-52.87 167.2 -55.54 164.73 -58.5 161.72 C-59.04 161.19 -59.58 160.65 -60.13 160.1 C-61.9 158.33 -63.66 156.55 -65.42 154.77 C-66.65 153.54 -67.88 152.31 -69.1 151.08 C-72.33 147.85 -75.55 144.61 -78.77 141.37 C-82.06 138.06 -85.35 134.76 -88.64 131.45 C-95.1 124.97 -101.55 118.49 -108 112 C-106.49 108.47 -104.45 106.21 -101.74 103.51 C-100.84 102.61 -99.95 101.72 -99.02 100.8 C-98.03 99.81 -97.04 98.83 -96.04 97.85 C-95 96.81 -93.95 95.76 -92.91 94.72 C-90.66 92.48 -88.41 90.24 -86.16 88.01 C-82.6 84.48 -79.05 80.94 -75.5 77.39 C-67.96 69.88 -60.42 62.38 -52.88 54.88 C-44.72 46.77 -36.58 38.66 -28.44 30.54 C-24.9 27.02 -21.37 23.5 -17.82 19.99 C-15.63 17.81 -13.43 15.62 -11.24 13.43 C-10.22 12.41 -9.2 11.4 -8.17 10.39 C-6.78 9.01 -5.4 7.62 -4.01 6.24 C-3.23 5.46 -2.45 4.69 -1.65 3.89 C0.22 2.17 0.22 2.17 0 0 Z " fill="#E13734" transform="translate(462,752)"/>
<path d="M0 0 C20.19 10.1 45.2 30.79 54 52 C61.48 77.04 56.54 106.93 53.9 132.47 C52.78 143.33 52.6 154.08 53 165 C50 165 50 165 48.67 163.74 C48.18 163.13 47.69 162.51 47.19 161.88 C42.99 156.83 38.33 152.31 33.62 147.75 C33.03 147.16 32.43 146.58 31.82 145.98 C31.27 145.45 30.73 144.93 30.17 144.39 C29 143 29 143 29 141 C28.47 140.79 27.94 140.59 27.39 140.38 C23.99 138.42 21.49 135.78 18.75 133 C18.2 132.45 17.64 131.91 17.07 131.34 C13 127.25 13 127.25 13 125 C11.51 124.5 11.51 124.5 10 124 C10 123.34 10 122.68 10 122 C9.2 121.69 9.2 121.69 8.38 121.38 C5.08 119.47 2.41 116.95 0 114 C0 113.34 0 112.68 0 112 C-0.99 111.67 -1.98 111.34 -3 111 C-3 110.34 -3 109.68 -3 109 C-3.99 108.67 -4.98 108.34 -6 108 C-6 107.34 -6 106.68 -6 106 C-6.99 105.67 -7.98 105.34 -9 105 C-9 104.34 -9 103.68 -9 103 C-9.99 102.67 -10.98 102.34 -12 102 C-14.19 100.06 -14.19 100.06 -16 98 C-16 97.34 -16 96.68 -16 96 C-16.99 95.67 -17.98 95.34 -19 95 C-19 94.34 -19 93.68 -19 93 C-19.99 92.67 -20.98 92.34 -22 92 C-22 91.34 -22 90.68 -22 90 C-22.99 89.67 -23.98 89.34 -25 89 C-26.35 87.35 -27.69 85.68 -29 84 C-30.49 83.01 -30.49 83.01 -32 82 C-32 81.34 -32 80.68 -32 80 C-33.49 79.5 -33.49 79.5 -35 79 C-35 78.34 -35 77.68 -35 77 C-36.49 76.5 -36.49 76.5 -38 76 C-38 75.34 -38 74.68 -38 74 C-39.49 73.5 -39.49 73.5 -41 73 C-42.35 71.35 -43.69 69.68 -45 68 C-45.99 67.34 -46.98 66.68 -48 66 C-48 65.34 -48 64.68 -48 64 C-48.99 63.67 -49.98 63.34 -51 63 C-51 62.34 -51 61.68 -51 61 C-51.64 60.73 -52.28 60.46 -52.94 60.19 C-55 59 -55 59 -56 56 C-37.52 37.52 -19.04 19.04 0 0 Z " fill="#2E81B6" transform="translate(411,357)"/>
<path d="M0 0 C2.88 1.29 4.81 2.6 6.92 4.94 C7.47 5.54 8.02 6.15 8.59 6.77 C9.19 7.43 9.79 8.1 10.41 8.78 C20.11 19.32 30.28 29.39 40.44 39.5 C42.34 41.4 44.25 43.3 46.16 45.21 C50.77 49.81 55.38 54.4 60 59 C59 60 59 60 57.98 61.02 C55.13 63.87 52.29 66.72 49.45 69.57 C46.48 72.56 43.51 75.54 40.54 78.52 C38.97 80.09 37.41 81.65 35.86 83.22 C33.59 85.5 31.32 87.78 29.04 90.05 C28.36 90.75 27.67 91.44 26.96 92.15 C23.04 96.08 19.02 99.82 14.8 103.42 C11.9 105.96 9.2 108.69 6.5 111.44 C5.96 111.98 5.43 112.52 4.88 113.08 C3.58 114.38 2.29 115.69 1 117 C0.01 116.34 -0.98 115.68 -2 115 C-2 114.34 -2 113.68 -2 113 C-2.99 112.67 -3.98 112.34 -5 112 C-6.45 110.53 -6.45 110.53 -8.03 108.6 C-12.58 103.24 -17.55 98.33 -22.53 93.38 C-23.53 92.38 -24.53 91.38 -25.52 90.38 C-28.13 87.78 -30.73 85.19 -33.34 82.59 C-36.01 79.93 -38.68 77.27 -41.35 74.61 C-46.56 69.4 -51.78 64.2 -57 59 C-53.44 54.75 -49.8 50.68 -45.85 46.79 C-45.38 46.33 -44.92 45.87 -44.44 45.39 C-42.5 43.46 -40.55 41.54 -38.6 39.62 C-31.87 33.01 -31.87 33.01 -25.52 26.03 C-20.85 20.56 -15.67 15.56 -10.56 10.5 C-9.53 9.48 -8.51 8.45 -7.48 7.43 C-4.99 4.95 -2.5 2.47 0 0 Z " fill="#2E82B7" transform="translate(809,523)"/>
<path d="M0 0 C3.35 1.46 5.62 3.64 8.14 6.22 C8.68 6.75 9.22 7.28 9.77 7.83 C11.54 9.58 13.29 11.35 15.05 13.13 C16.27 14.35 17.5 15.58 18.73 16.8 C21.29 19.36 23.85 21.93 26.4 24.51 C29.68 27.82 32.98 31.11 36.27 34.39 C38.81 36.92 41.33 39.45 43.85 41.99 C45.06 43.2 46.28 44.42 47.49 45.63 C49.19 47.32 50.88 49.02 52.56 50.73 C53.06 51.23 53.57 51.73 54.09 52.25 C57.53 55.76 57.53 55.76 57.53 59.1 C56.02 60.65 56.02 60.65 53.97 62.29 C50.19 65.43 47.07 68.8 43.97 72.6 C43.5 73.09 43.02 73.59 42.53 74.1 C41.87 74.1 41.21 74.1 40.53 74.1 C40.03 75.59 40.03 75.59 39.53 77.1 C38.87 77.1 38.21 77.1 37.53 77.1 C37.03 78.59 37.03 78.59 36.53 80.1 C35.87 80.1 35.21 80.1 34.53 80.1 C34.26 80.7 33.99 81.29 33.71 81.9 C32.52 84.12 31.32 85.55 29.55 87.31 C28.95 87.91 28.35 88.51 27.73 89.13 C27.08 89.76 26.44 90.4 25.77 91.06 C25.11 91.72 24.44 92.38 23.76 93.06 C21.65 95.16 19.52 97.26 17.4 99.35 C15.97 100.78 14.53 102.21 13.09 103.63 C9.58 107.13 6.05 110.62 2.53 114.1 C-0.73 112.67 -2.88 110.93 -5.38 108.41 C-6.13 107.65 -6.89 106.89 -7.67 106.11 C-8.47 105.29 -9.28 104.47 -10.11 103.62 C-11.37 102.35 -11.37 102.35 -12.66 101.06 C-15.35 98.35 -18.04 95.63 -20.72 92.91 C-23.39 90.22 -26.06 87.52 -28.74 84.83 C-30.4 83.15 -32.06 81.47 -33.72 79.79 C-37.94 75.53 -42.24 71.44 -46.8 67.54 C-48.93 65.71 -50.97 63.81 -52.97 61.85 C-53.64 61.21 -54.31 60.56 -55 59.9 C-56.47 58.1 -56.47 58.1 -56.47 55.1 C-57.13 54.77 -57.79 54.44 -58.47 54.1 C-57.39 53.52 -57.39 53.52 -56.3 52.92 C-53.18 50.92 -50.88 48.71 -48.3 46.06 C-47.81 45.56 -47.32 45.07 -46.82 44.55 C-45.76 43.47 -44.7 42.39 -43.65 41.31 C-41.98 39.6 -40.31 37.89 -38.63 36.19 C-33.86 31.36 -29.1 26.52 -24.36 21.65 C-21.46 18.67 -18.54 15.71 -15.61 12.75 C-14.5 11.62 -13.39 10.49 -12.29 9.35 C-10.76 7.76 -9.2 6.19 -7.64 4.62 C-6.76 3.72 -5.88 2.82 -4.98 1.9 C-2.47 0.1 -2.47 0.1 0 0 Z " fill="#E85925" transform="translate(579.4720916748047,638.8977966308594)"/>
<path d="M0 0 C0.66 0 1.32 0 2 0 C2 0.66 2 1.32 2 2 C2.83 2.34 2.83 2.34 3.68 2.69 C6.68 4.38 8.75 6.52 11.18 8.97 C11.68 9.47 12.19 9.98 12.7 10.5 C14.36 12.16 16.01 13.83 17.66 15.5 C18.81 16.66 19.97 17.82 21.12 18.97 C24.15 22.02 27.18 25.07 30.21 28.13 C35.05 33.01 39.9 37.9 44.76 42.77 C46.45 44.48 48.14 46.19 49.83 47.9 C50.87 48.94 51.91 49.99 52.95 51.03 C54.31 52.4 54.31 52.4 55.69 53.8 C57.99 56.12 57.99 56.12 61 58 C59.86 61.43 58.8 62.25 56.06 64.5 C53.49 66.63 51.88 68.18 50 71 C49.34 71 48.68 71 48 71 C47.6 71.9 47.6 71.9 47.19 72.81 C46 75 44.9 76.41 43 78 C42.34 78 41.68 78 41 78 C40.5 79.49 40.5 79.49 40 81 C39.34 81 38.68 81 38 81 C37.73 81.59 37.47 82.18 37.19 82.79 C35.98 85.04 34.74 86.5 32.93 88.3 C32.31 88.92 31.69 89.54 31.05 90.18 C30.38 90.84 29.71 91.49 29.02 92.17 C28.34 92.85 27.65 93.54 26.95 94.24 C24.76 96.41 22.57 98.58 20.38 100.75 C18.89 102.22 17.41 103.7 15.92 105.18 C12.29 108.79 8.64 112.4 5 116 C1.08 114.41 -1.56 111.72 -4.49 108.77 C-5.02 108.24 -5.56 107.71 -6.11 107.16 C-7.87 105.4 -9.63 103.64 -11.39 101.88 C-12.61 100.66 -13.84 99.43 -15.06 98.21 C-17.63 95.65 -20.19 93.08 -22.75 90.52 C-26.03 87.22 -29.32 83.94 -32.61 80.66 C-35.14 78.13 -37.67 75.61 -40.19 73.08 C-41.4 71.86 -42.62 70.65 -43.83 69.44 C-45.53 67.75 -47.21 66.06 -48.9 64.36 C-49.41 63.86 -49.91 63.36 -50.43 62.84 C-52.69 60.55 -53.97 59.1 -55 56 C-54.55 55.62 -54.1 55.24 -53.64 54.85 C-47.46 49.55 -41.69 43.86 -35.94 38.11 C-34.9 37.07 -33.85 36.03 -32.81 34.99 C-30.64 32.83 -28.48 30.67 -26.32 28.5 C-23.54 25.72 -20.76 22.95 -17.97 20.19 C-15.82 18.05 -13.68 15.91 -11.54 13.77 C-10.52 12.75 -9.49 11.72 -8.46 10.7 C-7.03 9.28 -5.61 7.86 -4.19 6.43 C-3.38 5.62 -2.57 4.81 -1.73 3.98 C0.22 2.19 0.22 2.19 0 0 Z " fill="#E95A25" transform="translate(691,523)"/>
<path d="M0 0 C5.94 4.88 11.35 10.23 16.75 15.68 C18.36 17.3 19.97 18.92 21.58 20.53 C25 23.96 28.4 27.38 31.81 30.81 C35.78 34.8 39.75 38.8 43.73 42.78 C45.31 44.38 46.9 45.97 48.48 47.57 C49.45 48.54 50.42 49.51 51.39 50.48 C52.65 51.76 52.65 51.76 53.95 53.06 C55.85 55.05 55.85 55.05 58 56 C56.41 59.93 53.69 62.58 50.72 65.5 C50.19 66.04 49.65 66.58 49.1 67.13 C47.33 68.9 45.55 70.66 43.77 72.42 C42.54 73.65 41.31 74.88 40.08 76.1 C36.85 79.33 33.61 82.55 30.37 85.77 C27.06 89.06 23.76 92.35 20.45 95.64 C13.97 102.1 7.49 108.55 1 115 C-2.93 113.41 -5.58 110.69 -8.5 107.72 C-9.04 107.19 -9.58 106.65 -10.13 106.1 C-11.9 104.33 -13.66 102.55 -15.42 100.77 C-16.65 99.54 -17.88 98.31 -19.1 97.08 C-22.33 93.85 -25.55 90.61 -28.77 87.37 C-32.06 84.06 -35.35 80.76 -38.64 77.45 C-45.1 70.97 -51.55 64.49 -58 58 C-38.67 38.67 -19.33 19.33 0 0 Z " fill="#2E82B7" transform="translate(694,409)"/>
<path d="M0 0 C3.06 1.39 4.99 3.42 7.37 5.79 C7.88 6.29 8.39 6.79 8.92 7.31 C10.6 8.96 12.26 10.63 13.93 12.3 C15.09 13.45 16.25 14.61 17.42 15.76 C19.85 18.18 22.28 20.61 24.7 23.04 C27.81 26.16 30.94 29.25 34.08 32.35 C36.48 34.73 38.88 37.12 41.27 39.51 C42.42 40.66 43.57 41.8 44.73 42.94 C46.34 44.53 47.94 46.14 49.53 47.75 C50.45 48.67 51.36 49.58 52.3 50.52 C54.13 52.97 54.13 52.97 54.25 54.94 C52.59 57.94 50.3 60.19 47.88 62.56 C47.06 63.38 47.06 63.38 46.22 64.22 C44.41 66.02 42.6 67.81 40.78 69.61 C39.53 70.86 38.27 72.1 37.02 73.36 C33.72 76.64 30.41 79.92 27.1 83.2 C23.72 86.55 20.36 89.9 16.99 93.25 C10.38 99.83 3.76 106.4 -2.87 112.97 C-7.84 108.8 -12.53 104.47 -17.12 99.89 C-17.77 99.23 -18.43 98.58 -19.1 97.91 C-20.48 96.54 -21.85 95.17 -23.22 93.81 C-25.32 91.7 -27.43 89.61 -29.55 87.51 C-30.88 86.18 -32.22 84.85 -33.55 83.51 C-34.19 82.89 -34.82 82.26 -35.48 81.61 C-39.87 77.19 -39.87 77.19 -39.87 74.97 C-40.43 74.74 -40.98 74.51 -41.56 74.28 C-47.06 71.16 -51.01 65.58 -55.1 60.86 C-56.74 58.89 -56.74 58.89 -58.87 57.97 C-57.48 54.84 -55.88 52.72 -53.46 50.32 C-52.78 49.64 -52.1 48.97 -51.4 48.27 C-50.33 47.22 -50.33 47.22 -49.25 46.15 C-48.56 45.47 -47.87 44.78 -47.16 44.07 C-43.89 40.82 -40.57 37.69 -37.07 34.68 C-32.99 31.13 -29.21 27.35 -25.45 23.47 C-24.08 22.07 -22.71 20.68 -21.34 19.28 C-19.22 17.11 -17.09 14.94 -14.98 12.75 C-12.92 10.62 -10.84 8.51 -8.76 6.4 C-8.13 5.74 -7.5 5.08 -6.85 4.4 C-6.25 3.8 -5.66 3.2 -5.04 2.59 C-4.53 2.05 -4.01 1.52 -3.47 0.97 C-1.87 -0.03 -1.87 -0.03 0 0 Z " fill="#BCC536" transform="translate(868.8705902099609,583.0347137451172)"/>
<path d="M0 0 C2.87 1.58 4.91 3.62 7.23 5.92 C7.74 6.42 8.25 6.93 8.78 7.44 C10.46 9.1 12.13 10.76 13.79 12.43 C14.95 13.59 16.12 14.74 17.28 15.9 C19.71 18.32 22.14 20.74 24.56 23.17 C27.68 26.29 30.81 29.39 33.94 32.48 C36.35 34.86 38.74 37.25 41.13 39.65 C42.28 40.79 43.43 41.94 44.59 43.08 C46.2 44.67 47.8 46.28 49.4 47.89 C50.31 48.8 51.22 49.71 52.16 50.65 C53.99 53.1 53.99 53.1 54.09 55.09 C52.5 58 50.3 60.18 47.95 62.48 C47.17 63.27 47.17 63.27 46.37 64.07 C44.63 65.8 42.89 67.51 41.15 69.23 C39.95 70.43 38.74 71.63 37.54 72.83 C34.37 75.99 31.19 79.14 28.01 82.29 C24.77 85.5 21.54 88.71 18.31 91.92 C12.64 97.57 6.96 103.21 1.28 108.84 C-0.16 110.25 -1.58 111.68 -3.01 113.1 C-4.51 111.73 -4.51 111.73 -6.01 110.1 C-6.01 109.44 -6.01 108.78 -6.01 108.1 C-6.81 107.79 -6.81 107.79 -7.62 107.48 C-11.02 105.52 -13.52 102.88 -16.26 100.1 C-16.81 99.55 -17.37 99.01 -17.94 98.44 C-22.01 94.35 -22.01 94.35 -22.01 92.1 C-22.81 91.79 -22.81 91.79 -23.62 91.48 C-27.02 89.52 -29.52 86.88 -32.26 84.1 C-32.81 83.55 -33.37 83.01 -33.94 82.44 C-38.01 78.35 -38.01 78.35 -38.01 76.1 C-38.54 75.89 -39.07 75.69 -39.62 75.48 C-43.02 73.52 -45.52 70.88 -48.26 68.1 C-48.81 67.55 -49.37 67.01 -49.94 66.44 C-54.01 62.35 -54.01 62.35 -54.01 60.1 C-55.33 59.44 -56.65 58.78 -58.01 58.1 C-56.42 54.23 -53.8 51.59 -50.89 48.67 C-50.37 48.14 -49.85 47.62 -49.31 47.07 C-47.59 45.33 -45.87 43.59 -44.14 41.86 C-42.94 40.65 -41.74 39.45 -40.55 38.24 C-38.04 35.71 -35.52 33.19 -33.01 30.67 C-29.78 27.44 -26.56 24.19 -23.36 20.93 C-20.89 18.44 -18.41 15.95 -15.93 13.47 C-14.74 12.27 -13.55 11.08 -12.37 9.87 C-10.72 8.2 -9.06 6.54 -7.39 4.88 C-6.9 4.38 -6.41 3.88 -5.91 3.36 C-2.61 0.13 -2.61 0.13 0 0 Z " fill="#BBC436" transform="translate(639.0084991455078,811.8997802734375)"/>
<path d="M0 0 C3.93 1.59 6.58 4.31 9.5 7.28 C10.04 7.81 10.58 8.35 11.13 8.9 C12.9 10.67 14.66 12.45 16.42 14.23 C17.65 15.46 18.88 16.69 20.1 17.92 C23.33 21.15 26.55 24.39 29.77 27.63 C33.06 30.94 36.35 34.24 39.64 37.55 C46.1 44.03 52.55 50.51 59 57 C56.63 58.19 55.25 58.11 52.6 58.08 C51.68 58.07 50.76 58.06 49.8 58.05 C48.79 58.04 47.77 58.02 46.72 58.01 C45.65 57.99 44.59 57.98 43.49 57.97 C41.16 57.95 38.83 57.92 36.51 57.89 C32.83 57.84 29.16 57.8 25.48 57.77 C16.35 57.67 7.21 57.56 -1.92 57.45 C-9.63 57.36 -17.34 57.28 -25.05 57.2 C-28.68 57.16 -32.31 57.11 -35.94 57.06 C-38.16 57.04 -40.38 57.02 -42.59 56.99 C-44.12 56.97 -44.12 56.97 -45.67 56.95 C-47.06 56.94 -47.06 56.94 -48.48 56.92 C-49.28 56.91 -50.09 56.91 -50.92 56.9 C-53.2 56.92 -53.2 56.92 -56 58 C-54.42 54.11 -51.76 51.49 -48.82 48.59 C-48.29 48.06 -47.76 47.53 -47.22 46.99 C-45.48 45.25 -43.74 43.53 -41.99 41.8 C-40.78 40.59 -39.58 39.39 -38.37 38.18 C-35.19 35.01 -32.01 31.85 -28.83 28.69 C-25.58 25.47 -22.34 22.23 -19.1 19 C-12.74 12.66 -6.37 6.33 0 0 Z " fill="#BBC436" transform="translate(807,753)"/>
<path d="M0 0 C3.85 1.58 6.45 4.18 9.32 7.09 C9.84 7.61 10.35 8.13 10.89 8.66 C12.59 10.36 14.29 12.08 15.98 13.79 C17.17 14.97 18.35 16.16 19.53 17.35 C22.64 20.46 25.74 23.58 28.84 26.71 C32.01 29.89 35.18 33.08 38.36 36.26 C44.58 42.5 50.79 48.75 57 55 C55.73 57.79 54.41 59.84 52.24 62.01 C51.68 62.56 51.13 63.12 50.56 63.7 C49.96 64.29 49.36 64.88 48.74 65.49 C48.12 66.11 47.5 66.73 46.86 67.37 C45.54 68.69 44.22 70 42.9 71.31 C40.9 73.29 38.91 75.28 36.91 77.27 C31.35 82.82 25.81 88.31 19.82 93.4 C16.04 96.72 12.54 100.36 9 103.94 C8.23 104.72 7.45 105.5 6.65 106.3 C4.77 108.2 2.88 110.1 1 112 C0.34 111.67 -0.32 111.34 -1 111 C-1.03 96.46 -0.95 81.92 -0.78 67.38 C-0.76 65.42 -0.74 63.45 -0.71 61.49 C-0.66 56.4 -0.6 51.32 -0.54 46.23 C-0.48 41.01 -0.42 35.79 -0.36 30.56 C-0.24 20.37 -0.12 10.19 0 0 Z " fill="#BCC436" transform="translate(464,410)"/>
<path d="M0 0 C0.99 0.5 0.99 0.5 2 1 C2 89.11 2 177.22 2 268 C1.34 268 0.68 268 0 268 C0 179.56 0 91.12 0 0 Z " fill="#2E82B7" transform="translate(1149,655)"/>
<path d="M0 0 C0.99 0.5 0.99 0.5 2 1 C2 50.83 2 100.66 2 152 C1.34 152 0.68 152 0 152 C0 101.84 0 51.68 0 0 Z " fill="#2E82B7" transform="translate(1149,390)"/>
</svg>
